<svg width="24" height="24" viewBox="0 0 24 24" fill="none" xmlns="http://www.w3.org/2000/svg">
<g opacity="0.4">
<path d="M12 14.5C13.5913 14.5 15.1174 13.8679 16.2426 12.7426C17.3679 11.6174 18 10.0913 18 8.5C18 6.9087 17.3679 5.38258 16.2426 4.25736C15.1174 3.13214 13.5913 2.5 12 2.5C10.4087 2.5 8.88258 3.13214 7.75736 4.25736C6.63214 5.38258 6 6.9087 6 8.5C6 10.0913 6.63214 11.6174 7.75736 12.7426C8.88258 13.8679 10.4087 14.5 12 14.5Z" stroke="black" stroke-width="1.5" stroke-linecap="round" stroke-linejoin="round"/>
<path d="M16 21.5C16.7879 21.5 17.5681 21.3448 18.2961 21.0433C19.0241 20.7417 19.6855 20.2998 20.2426 19.7426C20.7998 19.1855 21.2417 18.5241 21.5433 17.7961C21.8448 17.0681 22 16.2879 22 15.5C22 14.7121 21.8448 13.9319 21.5433 13.2039C21.2417 12.4759 20.7998 11.8145 20.2426 11.2574C19.6855 10.7002 19.0241 10.2583 18.2961 9.95672C17.5681 9.65519 16.7879 9.5 16 9.5C14.4087 9.5 12.8826 10.1321 11.7574 11.2574C10.6321 12.3826 10 13.9087 10 15.5C10 17.0913 10.6321 18.6174 11.7574 19.7426C12.8826 20.8679 14.4087 21.5 16 21.5Z" stroke="black" stroke-width="1.5" stroke-linecap="round" stroke-linejoin="round"/>
<path d="M8 21.5C8.78793 21.5 9.56815 21.3448 10.2961 21.0433C11.0241 20.7417 11.6855 20.2998 12.2426 19.7426C12.7998 19.1855 13.2417 18.5241 13.5433 17.7961C13.8448 17.0681 14 16.2879 14 15.5C14 14.7121 13.8448 13.9319 13.5433 13.2039C13.2417 12.4759 12.7998 11.8145 12.2426 11.2574C11.6855 10.7002 11.0241 10.2583 10.2961 9.95672C9.56815 9.65519 8.78793 9.5 8 9.5C6.4087 9.5 4.88258 10.1321 3.75736 11.2574C2.63214 12.3826 2 13.9087 2 15.5C2 17.0913 2.63214 18.6174 3.75736 19.7426C4.88258 20.8679 6.4087 21.5 8 21.5Z" stroke="black" stroke-width="1.5" stroke-linecap="round" stroke-linejoin="round"/>
</g>
</svg>