<svg width="33" height="33" viewBox="0 0 33 33" fill="none" xmlns="http://www.w3.org/2000/svg">
<g opacity="0.3" clip-path="url(#clip0_1_979)">
<path d="M18.8568 12.6606L17.3568 10.0625M12.1606 13.0625L13.6606 15.6606L11.0625 17.1606M16.6606 20.8568L14.0625 22.3568M12.4324 29.5333L3.03242 13.252C2.95286 13.1142 2.9313 12.9505 2.97248 12.7967C3.01367 12.643 3.11423 12.512 3.25204 12.4324L19.5333 3.03242C19.6711 2.95286 19.8349 2.9313 19.9886 2.97248C20.1423 3.01367 20.2734 3.11423 20.3529 3.25204L23.7529 9.14101C23.8325 9.27882 23.8541 9.44259 23.8129 9.5963C23.7717 9.75001 23.6711 9.88106 23.5333 9.96063L14.1802 15.3606C14.0424 15.4402 13.9419 15.5712 13.9007 15.7249C13.8595 15.8787 13.8811 16.0424 13.9606 16.1802L19.3606 25.5333C19.4 25.6016 19.4256 25.6769 19.4359 25.755C19.4462 25.8331 19.441 25.9125 19.4206 25.9886C19.4002 26.0647 19.365 26.1361 19.317 26.1986C19.2691 26.2611 19.2092 26.3135 19.141 26.3529L13.252 29.7529C13.1838 29.7923 13.1085 29.8179 13.0304 29.8282C12.9522 29.8385 12.8729 29.8333 12.7967 29.8129C12.7206 29.7925 12.6493 29.7573 12.5868 29.7093C12.5243 29.6614 12.4718 29.6016 12.4324 29.5333Z" stroke="black" stroke-width="1.5" stroke-linecap="round" stroke-linejoin="round"/>
</g>
<defs>
<clipPath id="clip0_1_979">
<rect width="24" height="24" fill="white" transform="translate(0 12) rotate(-30)"/>
</clipPath>
</defs>
</svg>