<svg width="25" height="24" viewBox="0 0 25 24" fill="none" xmlns="http://www.w3.org/2000/svg">
<g opacity="0.3">
<path d="M12.7129 2C7.18989 2 2.71289 6.477 2.71289 12C2.71289 17.523 7.18989 22 12.7129 22C18.2359 22 22.7129 17.523 22.7129 12C22.7129 6.477 18.2359 2 12.7129 2Z" stroke="black" stroke-width="1.5" stroke-linecap="round" stroke-linejoin="round"/>
<path d="M8.71289 21.168V14L12.7129 7L16.7129 14V21.168" stroke="black" stroke-width="1.5" stroke-linecap="round" stroke-linejoin="round"/>
<path d="M8.71289 14C8.71289 14 9.83989 15 10.7129 15C11.5859 15 12.7129 14 12.7129 14C12.7129 14 13.8399 15 14.7129 15C15.5859 15 16.7129 14 16.7129 14" stroke="black" stroke-width="1.5" stroke-linecap="round" stroke-linejoin="round"/>
</g>
</svg>