<svg width="95" height="44" viewBox="0 0 95 44" fill="none" xmlns="http://www.w3.org/2000/svg">
<g clip-path="url(#clip0_155_406)">
<path d="M7.52734 6.20529H8.53392V21.0245H7.52734V6.20529Z" stroke="#DDA2A6"/>
<path d="M15.5649 13.1699L15.5563 14.1473L0.504214 14.0179L0.512869 13.0405L15.5649 13.1699Z" stroke="#DDA2A6"/>
<path d="M14.1323 17.9877L13.4908 18.7411L1.96444 9.20992L2.60594 8.45653L14.1323 17.9877Z" stroke="#DDA2A6"/>
<path d="M2.65175 18.8198L2.00352 18.0719L13.445 8.44205L14.0932 9.19L2.65175 18.8198Z" stroke="#DDA2A6"/>
<path d="M25.0175 20.5737C27.1403 20.5737 28.5964 18.9831 28.5964 17.1332C28.5964 15.4735 27.4034 14.3843 26.2982 13.831L24.7192 13.053C23.9648 12.6727 23.5262 12.2059 23.5262 11.497C23.5262 10.7191 24.1227 10.1139 25.035 10.1139C25.9824 10.1139 26.8947 10.8747 27.4385 11.791L29.1052 10.4943C28.1754 9.04204 26.8069 8.12573 25.0701 8.12573C22.842 8.12573 21.3859 9.62986 21.3859 11.5835C21.3859 13.2951 22.4385 14.3324 23.6315 14.9202L25.3157 15.7501C26.1578 16.165 26.4561 16.6837 26.4561 17.2715C26.4561 17.9631 25.9999 18.5855 25.0175 18.5855C24.1403 18.5855 23.2105 17.9112 22.6315 16.822L20.9648 18.1187C21.9298 19.6747 23.228 20.5737 25.0175 20.5737ZM29.978 20.4008H32.0657V8.29862H29.978V20.4008ZM37.0789 20.5737C39.2017 20.5737 40.6578 18.9831 40.6578 17.1332C40.6578 15.4735 39.4648 14.3843 38.3596 13.831L36.7806 13.053C36.0262 12.6727 35.5877 12.2059 35.5877 11.497C35.5877 10.7191 36.1841 10.1139 37.0964 10.1139C38.0438 10.1139 38.9561 10.8747 39.4999 11.791L41.1666 10.4943C40.2368 9.04204 38.8684 8.12573 37.1315 8.12573C34.9034 8.12573 33.4473 9.62986 33.4473 11.5835C33.4473 13.2951 34.4999 14.3324 35.6929 14.9202L37.3771 15.7501C38.2192 16.165 38.5175 16.6837 38.5175 17.2715C38.5175 17.9631 38.0613 18.5855 37.0789 18.5855C36.2017 18.5855 35.2719 17.9112 34.6929 16.822L33.0262 18.1187C33.9912 19.6747 35.2894 20.5737 37.0789 20.5737ZM44.9383 20.4008H47.026V16.4589L50.9383 8.29862H48.7453L45.9734 14.3324L43.0962 8.29862H40.9032L44.9383 16.4589V20.4008ZM51.7194 20.4008H53.8071V15.5772H56.2633C58.8422 15.5772 60.1405 13.7619 60.1405 11.9293C60.1405 10.1139 58.8422 8.29862 56.2633 8.29862H51.7194V20.4008ZM53.8071 13.6236V10.2523H56.2808C57.4212 10.2523 57.9826 11.0994 57.9826 11.9293C57.9826 12.7764 57.4212 13.6236 56.2808 13.6236H53.8071ZM61.1937 20.4008H63.2814V15.2314H68.9481V20.4008H71.0358V8.29862H68.9481V13.2778H63.2814V8.29862H61.1937V20.4008ZM77.0206 20.5737C79.4241 20.5737 81.3364 18.8448 81.3364 16.4244V8.29862H79.2487V16.1996C79.2487 17.7037 78.3013 18.5509 77.0206 18.5509C75.7224 18.5509 74.7926 17.7037 74.7926 16.1996V8.29862H72.7048V16.4244C72.7048 18.8448 74.5996 20.5737 77.0206 20.5737ZM86.2668 20.5737C88.3894 20.5737 89.8456 18.9831 89.8456 17.1332C89.8456 15.4735 88.6526 14.3843 87.5475 13.831L85.9685 13.053C85.2141 12.6727 84.7756 12.2059 84.7756 11.497C84.7756 10.7191 85.372 10.1139 86.2843 10.1139C87.2317 10.1139 88.1438 10.8747 88.6877 11.791L90.3543 10.4943C89.4245 9.04204 88.0561 8.12573 86.3194 8.12573C84.0913 8.12573 82.6352 9.62986 82.6352 11.5835C82.6352 13.2951 83.6878 14.3324 84.8808 14.9202L86.565 15.7501C87.4071 16.165 87.7054 16.6837 87.7054 17.2715C87.7054 17.9631 87.2492 18.5855 86.2668 18.5855C85.3896 18.5855 84.4598 17.9112 83.8808 16.822L82.2141 18.1187C83.1791 19.6747 84.4773 20.5737 86.2668 20.5737Z" fill="#DDA2A6"/>
<mask id="path-6-inside-1_155_406" fill="white">
<path d="M8.35093 25.0195C4.49128 25.0195 3.92988 28.3044 3.43865 31.1916C3.03514 33.5256 2.68426 35.5484 0.789525 35.5484C0.63163 35.5484 0.526367 35.6521 0.526367 35.8077V37.3983C0.526367 37.5539 0.63163 37.6749 0.789525 37.6749C4.50882 37.6749 5.10531 34.4073 5.63163 31.5201C6.05268 29.1343 6.4211 27.0769 8.35093 27.0769C8.50882 27.0769 8.63163 26.9559 8.63163 26.8176V25.2789C8.63163 25.1405 8.50882 25.0195 8.35093 25.0195ZM9.56145 25.0195C9.40356 25.0195 9.2983 25.1405 9.2983 25.2789V26.8176C9.2983 26.9559 9.40356 27.0769 9.56145 27.0769H11.965L10.2281 37.3464C10.2106 37.4156 10.2281 37.502 10.2808 37.5539C10.3334 37.6231 10.4036 37.6576 10.4913 37.6576H12.2808C12.4036 37.6576 12.5264 37.5539 12.5439 37.4329L14.2983 27.0769H16.7895C16.9299 27.0769 17.0527 26.9559 17.0527 26.8176V25.2789C17.0527 25.1405 16.9299 25.0195 16.7895 25.0195H9.56145ZM23.2001 25.0195H21.393C21.2527 25.0195 21.1299 25.1405 21.1299 25.2789V35.704H20.0772V25.2789C20.0772 25.1405 19.972 25.0195 19.8141 25.0195H18.0071C17.8492 25.0195 17.7439 25.1405 17.7439 25.2789V35.5657C17.7439 35.9633 17.8141 36.3091 17.9895 36.603C18.165 36.8796 18.3755 37.1217 18.6562 37.3119C18.9369 37.4847 19.2351 37.6231 19.586 37.7095C19.9193 37.7959 20.2527 37.8305 20.6036 37.8305C20.9544 37.8305 21.3053 37.7959 21.6211 37.7095C21.972 37.6231 22.2702 37.4847 22.5509 37.3119C22.8316 37.1217 23.0597 36.8796 23.2176 36.603C23.393 36.3091 23.4808 35.9633 23.4808 35.5657V25.2789C23.4808 25.1405 23.3579 25.0195 23.2001 25.0195ZM30.4069 31.3299C30.4069 29.9468 30.4069 28.5464 30.4069 27.1633C30.4069 26.7657 30.3016 26.4372 30.1086 26.1433C29.9157 25.884 29.6701 25.6592 29.3718 25.4863C29.0911 25.3307 28.7753 25.2097 28.4244 25.1233C28.0911 25.0541 27.7402 25.0195 27.4069 25.0195H24.7753C24.6174 25.0195 24.5122 25.1405 24.5122 25.2789V37.381C24.5122 37.5366 24.6174 37.6576 24.7753 37.6576H27.4069C27.7402 37.6576 28.0911 37.6231 28.4244 37.5539C28.7929 37.4675 29.1086 37.3464 29.3893 37.1908C29.6876 37.0179 29.9332 36.7932 30.1262 36.5339C30.3192 36.24 30.4244 35.8942 30.4244 35.4965C30.4244 34.1134 30.4244 32.713 30.4069 31.3299ZM28.0736 35.4965H28.056C28.0385 35.5138 28.0209 35.5311 28.0209 35.5311C27.9683 35.5484 27.9157 35.5657 27.8455 35.5657C27.8279 35.5657 27.8104 35.5657 27.7753 35.5657C27.7051 35.583 27.635 35.6003 27.5823 35.6003H26.8279V27.0769H27.4069C27.442 27.0769 27.4946 27.0769 27.5823 27.0769C27.6701 27.0942 27.7402 27.0942 27.8104 27.1288C27.8981 27.146 27.9683 27.1633 28.0209 27.1806C28.0385 27.1979 28.056 27.2152 28.0736 27.2152C28.0736 27.2152 28.0736 27.2325 28.0736 27.2498V35.4965ZM34.6901 25.106C34.6374 25.0541 34.5497 25.0195 34.4795 25.0195H32.6901C32.5497 25.0195 32.4444 25.1233 32.4269 25.2616L30.9883 37.3637C30.9708 37.4329 30.9883 37.502 31.0409 37.5712C31.0936 37.6231 31.1637 37.6576 31.2515 37.6576H33.0409C33.1813 37.6576 33.2865 37.5539 33.3041 37.4156L34.7427 25.3134C34.7602 25.2443 34.7251 25.1751 34.6901 25.106ZM41.8157 24.8985C38.1841 24.8985 35.2543 27.803 35.2543 31.3818C35.2543 34.9433 38.1841 37.8478 41.8157 37.8478C45.4297 37.8478 48.3771 34.9433 48.3771 31.3818C48.3771 27.803 45.4297 24.8985 41.8157 24.8985ZM41.8157 35.7213C39.3771 35.7213 37.4122 33.7677 37.4122 31.3818C37.4122 28.9787 39.3771 27.025 41.8157 27.025C44.2367 27.025 46.2192 28.9787 46.2192 31.3818C46.2192 33.7677 44.2367 35.7213 41.8157 35.7213ZM56.014 25.0195C52.1544 25.0195 51.5929 28.3044 51.1017 31.1916C50.6982 33.5256 50.3473 35.5484 48.4526 35.5484C48.2947 35.5484 48.1894 35.6521 48.1894 35.8077V37.3983C48.1894 37.5539 48.2947 37.6749 48.4526 37.6749C52.1719 37.6749 52.7684 34.4073 53.2947 31.5201C53.7158 29.1343 54.0842 27.0769 56.014 27.0769C56.1719 27.0769 56.2947 26.9559 56.2947 26.8176V25.2789C56.2947 25.1405 56.1719 25.0195 56.014 25.0195Z"/>
</mask>
<path d="M8.35093 25.0195C4.49128 25.0195 3.92988 28.3044 3.43865 31.1916C3.03514 33.5256 2.68426 35.5484 0.789525 35.5484C0.63163 35.5484 0.526367 35.6521 0.526367 35.8077V37.3983C0.526367 37.5539 0.63163 37.6749 0.789525 37.6749C4.50882 37.6749 5.10531 34.4073 5.63163 31.5201C6.05268 29.1343 6.4211 27.0769 8.35093 27.0769C8.50882 27.0769 8.63163 26.9559 8.63163 26.8176V25.2789C8.63163 25.1405 8.50882 25.0195 8.35093 25.0195ZM9.56145 25.0195C9.40356 25.0195 9.2983 25.1405 9.2983 25.2789V26.8176C9.2983 26.9559 9.40356 27.0769 9.56145 27.0769H11.965L10.2281 37.3464C10.2106 37.4156 10.2281 37.502 10.2808 37.5539C10.3334 37.6231 10.4036 37.6576 10.4913 37.6576H12.2808C12.4036 37.6576 12.5264 37.5539 12.5439 37.4329L14.2983 27.0769H16.7895C16.9299 27.0769 17.0527 26.9559 17.0527 26.8176V25.2789C17.0527 25.1405 16.9299 25.0195 16.7895 25.0195H9.56145ZM23.2001 25.0195H21.393C21.2527 25.0195 21.1299 25.1405 21.1299 25.2789V35.704H20.0772V25.2789C20.0772 25.1405 19.972 25.0195 19.8141 25.0195H18.0071C17.8492 25.0195 17.7439 25.1405 17.7439 25.2789V35.5657C17.7439 35.9633 17.8141 36.3091 17.9895 36.603C18.165 36.8796 18.3755 37.1217 18.6562 37.3119C18.9369 37.4847 19.2351 37.6231 19.586 37.7095C19.9193 37.7959 20.2527 37.8305 20.6036 37.8305C20.9544 37.8305 21.3053 37.7959 21.6211 37.7095C21.972 37.6231 22.2702 37.4847 22.5509 37.3119C22.8316 37.1217 23.0597 36.8796 23.2176 36.603C23.393 36.3091 23.4808 35.9633 23.4808 35.5657V25.2789C23.4808 25.1405 23.3579 25.0195 23.2001 25.0195ZM30.4069 31.3299C30.4069 29.9468 30.4069 28.5464 30.4069 27.1633C30.4069 26.7657 30.3016 26.4372 30.1086 26.1433C29.9157 25.884 29.6701 25.6592 29.3718 25.4863C29.0911 25.3307 28.7753 25.2097 28.4244 25.1233C28.0911 25.0541 27.7402 25.0195 27.4069 25.0195H24.7753C24.6174 25.0195 24.5122 25.1405 24.5122 25.2789V37.381C24.5122 37.5366 24.6174 37.6576 24.7753 37.6576H27.4069C27.7402 37.6576 28.0911 37.6231 28.4244 37.5539C28.7929 37.4675 29.1086 37.3464 29.3893 37.1908C29.6876 37.0179 29.9332 36.7932 30.1262 36.5339C30.3192 36.24 30.4244 35.8942 30.4244 35.4965C30.4244 34.1134 30.4244 32.713 30.4069 31.3299ZM28.0736 35.4965H28.056C28.0385 35.5138 28.0209 35.5311 28.0209 35.5311C27.9683 35.5484 27.9157 35.5657 27.8455 35.5657C27.8279 35.5657 27.8104 35.5657 27.7753 35.5657C27.7051 35.583 27.635 35.6003 27.5823 35.6003H26.8279V27.0769H27.4069C27.442 27.0769 27.4946 27.0769 27.5823 27.0769C27.6701 27.0942 27.7402 27.0942 27.8104 27.1288C27.8981 27.146 27.9683 27.1633 28.0209 27.1806C28.0385 27.1979 28.056 27.2152 28.0736 27.2152C28.0736 27.2152 28.0736 27.2325 28.0736 27.2498V35.4965ZM34.6901 25.106C34.6374 25.0541 34.5497 25.0195 34.4795 25.0195H32.6901C32.5497 25.0195 32.4444 25.1233 32.4269 25.2616L30.9883 37.3637C30.9708 37.4329 30.9883 37.502 31.0409 37.5712C31.0936 37.6231 31.1637 37.6576 31.2515 37.6576H33.0409C33.1813 37.6576 33.2865 37.5539 33.3041 37.4156L34.7427 25.3134C34.7602 25.2443 34.7251 25.1751 34.6901 25.106ZM41.8157 24.8985C38.1841 24.8985 35.2543 27.803 35.2543 31.3818C35.2543 34.9433 38.1841 37.8478 41.8157 37.8478C45.4297 37.8478 48.3771 34.9433 48.3771 31.3818C48.3771 27.803 45.4297 24.8985 41.8157 24.8985ZM41.8157 35.7213C39.3771 35.7213 37.4122 33.7677 37.4122 31.3818C37.4122 28.9787 39.3771 27.025 41.8157 27.025C44.2367 27.025 46.2192 28.9787 46.2192 31.3818C46.2192 33.7677 44.2367 35.7213 41.8157 35.7213ZM56.014 25.0195C52.1544 25.0195 51.5929 28.3044 51.1017 31.1916C50.6982 33.5256 50.3473 35.5484 48.4526 35.5484C48.2947 35.5484 48.1894 35.6521 48.1894 35.8077V37.3983C48.1894 37.5539 48.2947 37.6749 48.4526 37.6749C52.1719 37.6749 52.7684 34.4073 53.2947 31.5201C53.7158 29.1343 54.0842 27.0769 56.014 27.0769C56.1719 27.0769 56.2947 26.9559 56.2947 26.8176V25.2789C56.2947 25.1405 56.1719 25.0195 56.014 25.0195Z" stroke="#DDA2A6" mask="url(#path-6-inside-1_155_406)"/>
<path d="M94.5 18.9312C94.5 19.6031 93.9453 20.1601 93.2456 20.1601C92.5459 20.1601 91.9912 19.6031 91.9912 18.9312C91.9912 18.2594 92.5459 17.7024 93.2456 17.7024C93.9453 17.7024 94.5 18.2594 94.5 18.9312Z" stroke="#DDA2A6"/>
<mask id="mask0_155_406" style="mask-type:luminance" maskUnits="userSpaceOnUse" x="59" y="18" width="26" height="26">
<path d="M84.9125 18.5854H59.123V44H84.9125V18.5854Z" fill="white"/>
</mask>
<g mask="url(#mask0_155_406)">
<path d="M84.2938 36.4275C84.3304 36.7906 84.0242 37.1464 83.5653 37.1464H78.891C78.4705 37.1464 78.0653 36.7933 77.9426 36.2717C77.3104 33.583 74.8685 31.587 71.9601 31.587C69.0517 31.587 66.6098 33.583 65.9775 36.2717C65.8549 36.7933 65.4496 37.1464 65.0291 37.1464H60.3548C59.8959 37.1464 59.5897 36.7906 59.6263 36.4275C60.2464 30.264 65.5265 25.4391 71.9601 25.4391C78.3936 25.4391 83.6737 30.264 84.2938 36.4275Z" stroke="#DDA2A6"/>
</g>
</g>
<defs>
<clipPath id="clip0_155_406">
<rect width="95" height="44" fill="white"/>
</clipPath>
</defs>
</svg>
