<svg width="24" height="24" viewBox="0 0 24 24" fill="none" xmlns="http://www.w3.org/2000/svg">
<g opacity="0.4">
<path d="M12 3H9C8.20435 3 7.44129 3.31607 6.87868 3.87868C6.31607 4.44129 6 5.20435 6 6C6 6.79565 6.31607 7.55871 6.87868 8.12132C7.44129 8.68393 8.20435 9 9 9H12M12 3V9M12 3H15C15.7956 3 16.5587 3.31607 17.1213 3.87868C17.6839 4.44129 18 5.20435 18 6C18 6.79565 17.6839 7.55871 17.1213 8.12132C16.5587 8.68393 15.7956 9 15 9H12" stroke="black" stroke-width="1.5" stroke-linecap="round" stroke-linejoin="round"/>
<path d="M9 15C8.20435 15 7.44129 15.3161 6.87868 15.8787C6.31607 16.4413 6 17.2044 6 18C6 18.7956 6.31607 19.5587 6.87868 20.1213C7.44129 20.6839 8.20435 21 9 21C9.79565 21 10.5587 20.6839 11.1213 20.1213C11.6839 19.5587 12 18.7956 12 18V15M9 15H12M9 15C8.20435 15 7.44129 14.6839 6.87868 14.1213C6.31607 13.5587 6 12.7956 6 12C6 11.2044 6.31607 10.4413 6.87868 9.87868C7.44129 9.31607 8.20435 9 9 9H12V15M12 12C12 11.2044 12.3161 10.4413 12.8787 9.87868C13.4413 9.31607 14.2044 9 15 9C15.7956 9 16.5587 9.31607 17.1213 9.87868C17.6839 10.4413 18 11.2044 18 12C18 12.7956 17.6839 13.5587 17.1213 14.1213C16.5587 14.6839 15.7956 15 15 15C14.2044 15 13.4413 14.6839 12.8787 14.1213C12.3161 13.5587 12 12.7956 12 12Z" stroke="black" stroke-width="1.5" stroke-linecap="round" stroke-linejoin="round"/>
</g>
</svg>
