<svg width="24" height="24" viewBox="0 0 24 24" fill="none" xmlns="http://www.w3.org/2000/svg">
<g opacity="0.4">
<path d="M6.2361 8.0003C6.50143 7.7071 6.70619 7.36434 6.83858 6.99173C6.97098 6.61912 7.0284 6.22401 7.00755 5.82913C6.9867 5.43425 6.88799 5.04738 6.71709 4.69078C6.5462 4.33419 6.30649 4.01489 6.01176 3.75127C5.71702 3.48764 5.37308 3.28488 4.9997 3.15466C4.62633 3.02443 4.23089 2.9693 3.83614 2.99245C3.44138 3.01559 3.0551 3.11655 2.6995 3.28951C2.3439 3.46248 2.02601 3.70404 1.7641 4.0003C1.23911 4.59414 0.970475 5.37162 1.01687 6.16289C1.06326 6.95416 1.42091 7.69491 2.01169 8.22334C2.60247 8.75177 3.37837 9.02492 4.1699 8.98313C4.96142 8.94134 5.70425 8.588 6.2361 8.0003ZM6.2361 8.0003L16.0001 16.0003M17.0001 12.0003H18.0001M22.0001 12.0003H23.0001M6.2361 16.0003C6.50143 16.2935 6.70619 16.6363 6.83858 17.0089C6.97098 17.3815 7.0284 17.7766 7.00755 18.1715C6.9867 18.5664 6.88799 18.9532 6.71709 19.3098C6.5462 19.6664 6.30649 19.9857 6.01176 20.2493C5.71702 20.513 5.37308 20.7157 4.9997 20.8459C4.62633 20.9762 4.23089 21.0313 3.83614 21.0082C3.44138 20.985 3.0551 20.8841 2.6995 20.7111C2.3439 20.5381 2.02601 20.2966 1.7641 20.0003C1.23911 19.4065 0.970475 18.629 1.01687 17.8377C1.06326 17.0464 1.42091 16.3057 2.01169 15.7773C2.60247 15.2488 3.37837 14.9757 4.1699 15.0175C4.96142 15.0593 5.70425 15.4126 6.2361 16.0003ZM6.2361 16.0003L16.0001 8.0003" stroke="black" stroke-width="1.5" stroke-linecap="round" stroke-linejoin="round"/>
</g>
</svg>
