<svg width="332" height="230" viewBox="0 0 332 230" fill="none" xmlns="http://www.w3.org/2000/svg">
<g opacity="0.3" clip-path="url(#clip0_1_977)">
<path d="M18.8568 12.6606L17.3568 10.0625M12.1606 13.0625L13.6606 15.6606L11.0625 17.1606M16.6606 20.8568L14.0625 22.3568M12.4324 29.5333L3.03242 13.252C2.95286 13.1142 2.9313 12.9505 2.97248 12.7967C3.01367 12.643 3.11423 12.512 3.25204 12.4324L19.5333 3.03242C19.6711 2.95286 19.8349 2.9313 19.9886 2.97248C20.1423 3.01367 20.2734 3.11423 20.3529 3.25204L23.7529 9.14101C23.8325 9.27882 23.8541 9.44259 23.8129 9.5963C23.7717 9.75001 23.6711 9.88106 23.5333 9.96063L14.1802 15.3606C14.0424 15.4402 13.9419 15.5712 13.9007 15.7249C13.8595 15.8787 13.8811 16.0424 13.9606 16.1802L19.3606 25.5333C19.4 25.6016 19.4256 25.6769 19.4359 25.755C19.4462 25.8331 19.441 25.9125 19.4206 25.9886C19.4002 26.0647 19.365 26.1361 19.317 26.1986C19.2691 26.2611 19.2092 26.3135 19.141 26.3529L13.252 29.7529C13.1838 29.7923 13.1085 29.8179 13.0304 29.8282C12.9522 29.8385 12.8729 29.8333 12.7967 29.8129C12.7206 29.7925 12.6493 29.7573 12.5868 29.7093C12.5243 29.6614 12.4718 29.6016 12.4324 29.5333Z" stroke="black" stroke-width="1.5" stroke-linecap="round" stroke-linejoin="round"/>
</g>
<g opacity="0.3" clip-path="url(#clip1_1_977)">
<path d="M322.006 5.22259L329.077 12.2936C329.451 12.6686 329.662 13.1773 329.662 13.7076C329.662 14.2379 329.451 14.7465 329.077 15.1216L323.421 20.7786C323.235 20.9645 323.014 21.1121 322.771 21.2127C322.529 21.3134 322.268 21.3652 322.006 21.3652C321.743 21.3652 321.482 21.3134 321.24 21.2127C320.997 21.1121 320.776 20.9645 320.591 20.7786L313.521 13.7076L322.006 5.22259ZM322.006 5.22259L323.42 3.80859" stroke="black" stroke-width="1.5" stroke-linecap="round" stroke-linejoin="round"/>
<path d="M311.713 17C311.713 17 308.713 19.993 308.713 21.887C308.713 23.542 310.058 24.887 311.713 24.887C313.369 24.887 314.701 23.542 314.713 21.887C314.703 19.992 311.713 17 311.713 17Z" stroke="black" stroke-width="1.5" stroke-miterlimit="1.5" stroke-linecap="round" stroke-linejoin="round"/>
</g>
<g opacity="0.3">
<path d="M217.592 5.45398L219.713 7.57498M219.713 7.57498L221.126 6.16098C221.314 5.97351 221.568 5.86819 221.833 5.86819C222.098 5.86819 222.352 5.97351 222.54 6.16098L223.248 6.86798C223.435 7.05551 223.541 7.30982 223.541 7.57498C223.541 7.84014 223.435 8.09445 223.248 8.28198L221.833 9.69698M219.713 7.57498L221.833 9.69698M223.956 11.818L221.833 9.69698M217.592 9.69698L219.713 11.817C219.806 11.9099 219.88 12.0201 219.93 12.1415C219.98 12.2629 220.006 12.3931 220.006 12.5245C220.006 12.6559 219.98 12.786 219.93 12.9074C219.88 13.0288 219.806 13.1391 219.713 13.232L212.076 20.87C211.983 20.9634 211.872 21.0375 211.75 21.088L209.253 22.114C208.02 22.622 206.787 21.389 207.295 20.156L208.323 17.66C208.373 17.5376 208.447 17.4265 208.541 17.333L216.177 9.69698C216.27 9.604 216.38 9.53024 216.502 9.47992C216.623 9.4296 216.753 9.40369 216.885 9.40369C217.016 9.40369 217.146 9.4296 217.267 9.47992C217.389 9.53024 217.499 9.604 217.592 9.69698Z" stroke="black" stroke-width="1.5" stroke-linecap="round" stroke-linejoin="round"/>
</g>
<g opacity="0.3">
<path d="M119.713 4C114.19 4 109.713 8.477 109.713 14C109.713 19.523 114.19 24 119.713 24C125.236 24 129.713 19.523 129.713 14C129.713 8.477 125.236 4 119.713 4Z" stroke="black" stroke-width="1.5" stroke-linecap="round" stroke-linejoin="round"/>
<path d="M115.713 23.168V16L119.713 9L123.713 16V23.168" stroke="black" stroke-width="1.5" stroke-linecap="round" stroke-linejoin="round"/>
<path d="M115.713 16C115.713 16 116.84 17 117.713 17C118.586 17 119.713 16 119.713 16C119.713 16 120.84 17 121.713 17C122.586 17 123.713 16 123.713 16" stroke="black" stroke-width="1.5" stroke-linecap="round" stroke-linejoin="round"/>
</g>
<g opacity="0.4">
<path d="M115 220.5C116.591 220.5 118.117 219.868 119.243 218.743C120.368 217.617 121 216.091 121 214.5C121 212.909 120.368 211.383 119.243 210.257C118.117 209.132 116.591 208.5 115 208.5C113.409 208.5 111.883 209.132 110.757 210.257C109.632 211.383 109 212.909 109 214.5C109 216.091 109.632 217.617 110.757 218.743C111.883 219.868 113.409 220.5 115 220.5Z" stroke="black" stroke-width="1.5" stroke-linecap="round" stroke-linejoin="round"/>
<path d="M119 227.5C119.788 227.5 120.568 227.345 121.296 227.043C122.024 226.742 122.685 226.3 123.243 225.743C123.8 225.185 124.242 224.524 124.543 223.796C124.845 223.068 125 222.288 125 221.5C125 220.712 124.845 219.932 124.543 219.204C124.242 218.476 123.8 217.815 123.243 217.257C122.685 216.7 122.024 216.258 121.296 215.957C120.568 215.655 119.788 215.5 119 215.5C117.409 215.5 115.883 216.132 114.757 217.257C113.632 218.383 113 219.909 113 221.5C113 223.091 113.632 224.617 114.757 225.743C115.883 226.868 117.409 227.5 119 227.5Z" stroke="black" stroke-width="1.5" stroke-linecap="round" stroke-linejoin="round"/>
<path d="M111 227.5C111.788 227.5 112.568 227.345 113.296 227.043C114.024 226.742 114.685 226.3 115.243 225.743C115.8 225.185 116.242 224.524 116.543 223.796C116.845 223.068 117 222.288 117 221.5C117 220.712 116.845 219.932 116.543 219.204C116.242 218.476 115.8 217.815 115.243 217.257C114.685 216.7 114.024 216.258 113.296 215.957C112.568 215.655 111.788 215.5 111 215.5C109.409 215.5 107.883 216.132 106.757 217.257C105.632 218.383 105 219.909 105 221.5C105 223.091 105.632 224.617 106.757 225.743C107.883 226.868 109.409 227.5 111 227.5Z" stroke="black" stroke-width="1.5" stroke-linecap="round" stroke-linejoin="round"/>
</g>
<g opacity="0.4">
<path d="M211.236 214C211.501 213.707 211.706 213.364 211.839 212.992C211.971 212.619 212.028 212.224 212.008 211.829C211.987 211.434 211.888 211.047 211.717 210.691C211.546 210.334 211.306 210.015 211.012 209.751C210.717 209.488 210.373 209.285 210 209.155C209.626 209.024 209.231 208.969 208.836 208.992C208.441 209.016 208.055 209.117 207.7 209.29C207.344 209.462 207.026 209.704 206.764 210C206.239 210.594 205.97 211.372 206.017 212.163C206.063 212.954 206.421 213.695 207.012 214.223C207.602 214.752 208.378 215.025 209.17 214.983C209.961 214.941 210.704 214.588 211.236 214ZM211.236 214L221 222M222 218H223M227 218H228M211.236 222C211.501 222.293 211.706 222.636 211.839 223.009C211.971 223.381 212.028 223.777 212.008 224.171C211.987 224.566 211.888 224.953 211.717 225.31C211.546 225.666 211.306 225.986 211.012 226.249C210.717 226.513 210.373 226.716 210 226.846C209.626 226.976 209.231 227.031 208.836 227.008C208.441 226.985 208.055 226.884 207.7 226.711C207.344 226.538 207.026 226.297 206.764 226C206.239 225.406 205.97 224.629 206.017 223.838C206.063 223.046 206.421 222.306 207.012 221.777C207.602 221.249 208.378 220.976 209.17 221.017C209.961 221.059 210.704 221.413 211.236 222ZM211.236 222L221 214" stroke="black" stroke-width="1.5" stroke-linecap="round" stroke-linejoin="round"/>
</g>
<g opacity="0.4">
<path d="M13 209H10C9.20435 209 8.44129 209.316 7.87868 209.879C7.31607 210.441 7 211.204 7 212C7 212.796 7.31607 213.559 7.87868 214.121C8.44129 214.684 9.20435 215 10 215H13M13 209V215M13 209H16C16.7956 209 17.5587 209.316 18.1213 209.879C18.6839 210.441 19 211.204 19 212C19 212.796 18.6839 213.559 18.1213 214.121C17.5587 214.684 16.7956 215 16 215H13" stroke="black" stroke-width="1.5" stroke-linecap="round" stroke-linejoin="round"/>
<path d="M10 221C9.20435 221 8.44129 221.316 7.87868 221.879C7.31607 222.441 7 223.204 7 224C7 224.796 7.31607 225.559 7.87868 226.121C8.44129 226.684 9.20435 227 10 227C10.7956 227 11.5587 226.684 12.1213 226.121C12.6839 225.559 13 224.796 13 224V221M10 221H13M10 221C9.20435 221 8.44129 220.684 7.87868 220.121C7.31607 219.559 7 218.796 7 218C7 217.204 7.31607 216.441 7.87868 215.879C8.44129 215.316 9.20435 215 10 215H13V221M13 218C13 217.204 13.3161 216.441 13.8787 215.879C14.4413 215.316 15.2044 215 16 215C16.7956 215 17.5587 215.316 18.1213 215.879C18.6839 216.441 19 217.204 19 218C19 218.796 18.6839 219.559 18.1213 220.121C17.5587 220.684 16.7956 221 16 221C15.2044 221 14.4413 220.684 13.8787 220.121C13.3161 219.559 13 218.796 13 218Z" stroke="black" stroke-width="1.5" stroke-linecap="round" stroke-linejoin="round"/>
</g>
<g opacity="0.4">
<path d="M328 224H313V209" stroke="black" stroke-width="1.5" stroke-linecap="round" stroke-linejoin="round"/>
<path d="M310 212H325V227" stroke="black" stroke-width="1.5" stroke-linecap="round" stroke-linejoin="round"/>
</g>
<defs>
<clipPath id="clip0_1_977">
<rect width="24" height="24" fill="white" transform="translate(0 12) rotate(-30)"/>
</clipPath>
<clipPath id="clip1_1_977">
<rect width="24" height="24" fill="white" transform="matrix(-1 0 0 1 331.713 2)"/>
</clipPath>
</defs>
</svg>
