<svg width="375" height="261" viewBox="0 0 375 261" fill="none" xmlns="http://www.w3.org/2000/svg">
<g opacity="0.2">
<mask id="mask0_117_119" style="mask-type:alpha" maskUnits="userSpaceOnUse" x="-60" y="0" width="1376" height="261">
<rect x="1316" y="261" width="1376" height="261" transform="rotate(180 1316 261)" fill="url(#paint0_radial_117_119)"/>
</mask>
<g mask="url(#mask0_117_119)">
<g opacity="0.5">
<g filter="url(#filter0_i_117_119)">
<path d="M908.185 144.617C1005.06 133.561 1350.17 166.227 1350.17 166.227V144.617C1350.17 144.617 1020.41 57.0009 908.185 92.8555C795.96 128.71 481.629 175.501 354.188 144.617C226.746 113.734 -89.6158 92.8555 -89.6158 92.8555V198.892C-89.6158 198.892 62.9604 157.181 119.268 156.678C175.576 156.175 227.188 154.947 358.5 195C489.813 235.052 811.311 155.673 908.185 144.617Z" fill="#212121"/>
</g>
<path d="M908.185 144.617C1005.06 133.561 1350.17 166.227 1350.17 166.227V144.617C1350.17 144.617 1020.41 57.0009 908.185 92.8555C795.96 128.71 481.629 175.501 354.188 144.617C226.746 113.734 -89.6158 92.8555 -89.6158 92.8555V198.892C-89.6158 198.892 62.9604 157.181 119.268 156.678C175.576 156.175 227.188 154.947 358.5 195C489.813 235.052 811.311 155.673 908.185 144.617Z" stroke="#FED8FF"/>
</g>
<g style="mix-blend-mode:screen" opacity="0.5">
<g filter="url(#filter1_i_117_119)">
<path d="M855.906 158.34C952.78 169.396 1297.89 136.731 1297.89 136.731V158.34C1297.89 158.34 1026.79 173.957 855.906 210.102C685.019 246.248 408.135 131.706 315.499 146.28C222.863 160.853 -141.895 210.102 -141.895 210.102V104.066C-141.895 104.066 10.6818 145.776 66.9897 146.279C123.298 146.782 162.319 151.499 301.909 112.499C441.499 73.4998 759.033 147.284 855.906 158.34Z" fill="#212121"/>
</g>
<path d="M855.906 158.34C952.78 169.396 1297.89 136.731 1297.89 136.731V158.34C1297.89 158.34 1026.79 173.957 855.906 210.102C685.019 246.248 408.135 131.706 315.499 146.28C222.863 160.853 -141.895 210.102 -141.895 210.102V104.066C-141.895 104.066 10.6818 145.776 66.9897 146.279C123.298 146.782 162.319 151.499 301.909 112.499C441.499 73.4998 759.033 147.284 855.906 158.34Z" stroke="#FED8FF"/>
</g>
</g>
</g>
<defs>
<filter id="filter0_i_117_119" x="-90.1158" y="83.7374" width="1440.79" height="126.964" filterUnits="userSpaceOnUse" color-interpolation-filters="sRGB">
<feFlood flood-opacity="0" result="BackgroundImageFix"/>
<feBlend mode="normal" in="SourceGraphic" in2="BackgroundImageFix" result="shape"/>
<feColorMatrix in="SourceAlpha" type="matrix" values="0 0 0 0 0 0 0 0 0 0 0 0 0 0 0 0 0 0 127 0" result="hardAlpha"/>
<feOffset dy="4"/>
<feGaussianBlur stdDeviation="32"/>
<feComposite in2="hardAlpha" operator="arithmetic" k2="-1" k3="1"/>
<feColorMatrix type="matrix" values="0 0 0 0 1 0 0 0 0 0.886667 0 0 0 0 0.666667 0 0 0 1 0"/>
<feBlend mode="normal" in2="shape" result="effect1_innerShadow_117_119"/>
</filter>
<filter id="filter1_i_117_119" x="-142.395" y="100.722" width="1440.79" height="120.971" filterUnits="userSpaceOnUse" color-interpolation-filters="sRGB">
<feFlood flood-opacity="0" result="BackgroundImageFix"/>
<feBlend mode="normal" in="SourceGraphic" in2="BackgroundImageFix" result="shape"/>
<feColorMatrix in="SourceAlpha" type="matrix" values="0 0 0 0 0 0 0 0 0 0 0 0 0 0 0 0 0 0 127 0" result="hardAlpha"/>
<feOffset dy="4"/>
<feGaussianBlur stdDeviation="32"/>
<feComposite in2="hardAlpha" operator="arithmetic" k2="-1" k3="1"/>
<feColorMatrix type="matrix" values="0 0 0 0 1 0 0 0 0 0.886667 0 0 0 0 0.666667 0 0 0 1 0"/>
<feBlend mode="normal" in2="shape" result="effect1_innerShadow_117_119"/>
</filter>
<radialGradient id="paint0_radial_117_119" cx="0" cy="0" r="1" gradientUnits="userSpaceOnUse" gradientTransform="translate(2004 391.5) rotate(90) scale(130.5 688)">
<stop stop-color="#D9D9D9"/>
<stop offset="1" stop-color="#D9D9D9" stop-opacity="0"/>
</radialGradient>
</defs>
</svg>
