<svg width="208" height="96" viewBox="0 0 208 96" fill="none" xmlns="http://www.w3.org/2000/svg">
<g clip-path="url(#clip0_3058_368)">
<path d="M15.832 46.463V12.9482H19.21V46.463H15.832Z" stroke="#4C668B"/>
<path d="M0.533507 27.8564L34.5561 28.149L34.5268 31.4632L0.504158 31.1706L0.533507 27.8564Z" stroke="#4C668B"/>
<path d="M5.61215 17.624L31.6714 39.1724L29.5056 41.716L3.44634 20.1676L5.61215 17.624Z" stroke="#4C668B"/>
<path d="M31.5884 20.1165L5.72109 41.8881L3.53275 39.3631L29.4001 17.5915L31.5884 20.1165Z" stroke="#4C668B"/>
<path d="M54.5843 44.8877C59.2159 44.8877 62.3929 41.4173 62.3929 37.3812C62.3929 33.76 59.79 31.3835 57.3785 30.1765L53.9336 28.479C52.2876 27.6491 51.3307 26.6307 51.3307 25.0841C51.3307 23.3867 52.6321 22.0664 54.6226 22.0664C56.6896 22.0664 58.68 23.7262 59.8666 25.7254L63.503 22.8963C61.4742 19.7277 58.4886 17.7285 54.6991 17.7285C49.8379 17.7285 46.6608 21.0102 46.6608 25.2727C46.6608 29.0071 48.9575 31.2704 51.5604 32.5529L55.235 34.3635C57.0723 35.2688 57.7231 36.4004 57.7231 37.6829C57.7231 39.1918 56.7278 40.5497 54.5843 40.5497C52.6704 40.5497 50.6417 39.0786 49.3786 36.7022L45.7422 39.5313C47.8475 42.9262 50.68 44.8877 54.5843 44.8877ZM65.4073 44.5104H69.9623V18.1057H65.4073V44.5104ZM80.9001 44.8877C85.5317 44.8877 88.7087 41.4173 88.7087 37.3812C88.7087 33.76 86.1058 31.3835 83.6943 30.1765L80.2494 28.479C78.6034 27.6491 77.6465 26.6307 77.6465 25.0841C77.6465 23.3867 78.9479 22.0664 80.9384 22.0664C83.0053 22.0664 84.9958 23.7262 86.1824 25.7254L89.8187 22.8963C87.79 19.7277 84.8044 17.7285 81.0149 17.7285C76.1537 17.7285 72.9766 21.0102 72.9766 25.2727C72.9766 29.0071 75.2733 31.2704 77.8762 32.5529L81.5508 34.3635C83.3881 35.2688 84.0388 36.4004 84.0388 37.6829C84.0388 39.1918 83.0436 40.5497 80.9001 40.5497C78.9862 40.5497 76.9575 39.0786 75.6943 36.7022L72.058 39.5313C74.1632 42.9262 76.9958 44.8877 80.9001 44.8877ZM98.0478 44.5104H102.603V35.91L111.139 18.1057H106.354L100.306 31.2704L94.0287 18.1057H89.244L98.0478 35.91V44.5104ZM112.843 44.5104H117.398V33.9863H122.757C128.384 33.9863 131.216 30.0256 131.216 26.0271C131.216 22.0664 128.384 18.1057 122.757 18.1057H112.843V44.5104ZM117.398 29.7238V22.3682H122.795C125.283 22.3682 126.508 24.2165 126.508 26.0271C126.508 27.8755 125.283 29.7238 122.795 29.7238H117.398ZM133.514 44.5104H138.069V33.2319H150.433V44.5104H154.988V18.1057H150.433V28.9694H138.069V18.1057H133.514V44.5104ZM168.046 44.8877C173.29 44.8877 177.462 41.1156 177.462 35.8346V18.1057H172.907V35.3442C172.907 38.626 170.84 40.4743 168.046 40.4743C165.213 40.4743 163.184 38.626 163.184 35.3442V18.1057H158.629V35.8346C158.629 41.1156 162.763 44.8877 168.046 44.8877ZM188.219 44.8877C192.85 44.8877 196.027 41.4173 196.027 37.3812C196.027 33.76 193.424 31.3835 191.013 30.1765L187.568 28.479C185.922 27.6491 184.966 26.6307 184.966 25.0841C184.966 23.3867 186.267 22.0664 188.257 22.0664C190.324 22.0664 192.314 23.7262 193.501 25.7254L197.137 22.8963C195.109 19.7277 192.123 17.7285 188.334 17.7285C183.473 17.7285 180.296 21.0102 180.296 25.2727C180.296 29.0071 182.592 31.2704 185.195 32.5529L188.87 34.3635C190.707 35.2688 191.358 36.4004 191.358 37.6829C191.358 39.1918 190.363 40.5497 188.219 40.5497C186.305 40.5497 184.277 39.0786 183.013 36.7022L179.377 39.5313C181.482 42.9262 184.315 44.8877 188.219 44.8877Z" fill="#4C668B"/>
<mask id="path-6-inside-1_3058_368" fill="white">
<path d="M18.2202 54.5883C9.79916 54.5883 8.57428 61.7553 7.50251 68.0547C6.62212 73.147 5.85657 77.5604 1.7226 77.5604C1.3781 77.5604 1.14844 77.7867 1.14844 78.1262V81.5965C1.14844 81.936 1.3781 82.2001 1.7226 82.2001C9.83743 82.2001 11.1389 75.0708 12.2872 68.7714C13.2059 63.5659 14.0097 59.0771 18.2202 59.0771C18.5647 59.0771 18.8326 58.813 18.8326 58.5112V55.1541C18.8326 54.8523 18.5647 54.5883 18.2202 54.5883ZM20.8614 54.5883C20.5169 54.5883 20.2872 54.8523 20.2872 55.1541V58.5112C20.2872 58.813 20.5169 59.0771 20.8614 59.0771H26.1054L22.3159 81.4834C22.2776 81.6342 22.3159 81.8228 22.4307 81.936C22.5456 82.0869 22.6987 82.1623 22.8901 82.1623H26.7944C27.0623 82.1623 27.3303 81.936 27.3685 81.672L31.1963 59.0771H36.6317C36.9379 59.0771 37.2059 58.813 37.2059 58.5112V55.1541C37.2059 54.8523 36.9379 54.5883 36.6317 54.5883H20.8614ZM50.6183 54.5883H46.6757C46.3695 54.5883 46.1016 54.8523 46.1016 55.1541V77.8999H43.8049V55.1541C43.8049 54.8523 43.5752 54.5883 43.2307 54.5883H39.2882C38.9437 54.5883 38.714 54.8523 38.714 55.1541V77.5981C38.714 78.4657 38.8671 79.2201 39.2499 79.8614C39.6327 80.4649 40.092 80.993 40.7044 81.4079C41.3169 81.7851 41.9676 82.0869 42.7331 82.2755C43.4604 82.4641 44.1877 82.5395 44.9532 82.5395C45.7188 82.5395 46.4843 82.4641 47.1733 82.2755C47.9389 82.0869 48.5896 81.7851 49.202 81.4079C49.8145 80.993 50.3121 80.4649 50.6566 79.8614C51.0393 79.2201 51.2307 78.4657 51.2307 77.5981V55.1541C51.2307 54.8523 50.9628 54.5883 50.6183 54.5883ZM66.3423 68.3564C66.3423 65.3388 66.3423 62.2834 66.3423 59.2657C66.3423 58.3981 66.1127 57.6814 65.6916 57.0401C65.2706 56.4743 64.7347 55.9839 64.084 55.6067C63.4715 55.2672 62.7825 55.0032 62.017 54.8146C61.2897 54.6637 60.5241 54.5883 59.7969 54.5883H54.0552C53.7107 54.5883 53.4811 54.8523 53.4811 55.1541V81.5588C53.4811 81.8983 53.7107 82.1623 54.0552 82.1623H59.7969C60.5241 82.1623 61.2897 82.0869 62.017 81.936C62.8208 81.7474 63.5098 81.4834 64.1222 81.1439C64.7729 80.7667 65.3088 80.2763 65.7299 79.7105C66.1509 79.0692 66.3806 78.3148 66.3806 77.4472C66.3806 74.4295 66.3806 71.3741 66.3423 68.3564ZM61.2514 77.4472H61.2131C61.1749 77.4849 61.1366 77.5227 61.1366 77.5227C61.0217 77.5604 60.9069 77.5981 60.7538 77.5981C60.7155 77.5981 60.6772 77.5981 60.6007 77.5981C60.4476 77.6358 60.2945 77.6735 60.1796 77.6735H58.5337V59.0771H59.7969C59.8734 59.0771 59.9883 59.0771 60.1796 59.0771C60.371 59.1148 60.5241 59.1148 60.6772 59.1902C60.8686 59.228 61.0217 59.2657 61.1366 59.3034C61.1749 59.3411 61.2131 59.3788 61.2514 59.3788C61.2514 59.3788 61.2514 59.4166 61.2514 59.4543V77.4472ZM75.6874 54.7769C75.5726 54.6637 75.3812 54.5883 75.2281 54.5883H71.3238C71.0175 54.5883 70.7879 54.8146 70.7496 55.1164L67.6108 81.5211C67.5726 81.672 67.6108 81.8228 67.7257 81.9737C67.8405 82.0869 67.9936 82.1623 68.185 82.1623H72.0893C72.3955 82.1623 72.6252 81.936 72.6635 81.6342L75.8022 55.2295C75.8405 55.0786 75.7639 54.9278 75.6874 54.7769ZM91.2342 54.3242C83.3107 54.3242 76.9184 60.6614 76.9184 68.4696C76.9184 76.2401 83.3107 82.5773 91.2342 82.5773C99.1194 82.5773 105.55 76.2401 105.55 68.4696C105.55 60.6614 99.1194 54.3242 91.2342 54.3242ZM91.2342 77.9376C85.9136 77.9376 81.6265 73.6751 81.6265 68.4696C81.6265 63.2264 85.9136 58.9639 91.2342 58.9639C96.5165 58.9639 100.842 63.2264 100.842 68.4696C100.842 73.6751 96.5165 77.9376 91.2342 77.9376ZM122.212 54.5883C113.791 54.5883 112.566 61.7553 111.495 68.0547C110.614 73.147 109.849 77.5604 105.715 77.5604C105.37 77.5604 105.141 77.7867 105.141 78.1262V81.5965C105.141 81.936 105.37 82.2001 105.715 82.2001C113.83 82.2001 115.131 75.0708 116.279 68.7714C117.198 63.5659 118.002 59.0771 122.212 59.0771C122.557 59.0771 122.825 58.813 122.825 58.5112V55.1541C122.825 54.8523 122.557 54.5883 122.212 54.5883Z"/>
</mask>
<path d="M18.2202 54.5883C9.79916 54.5883 8.57428 61.7553 7.50251 68.0547C6.62212 73.147 5.85657 77.5604 1.7226 77.5604C1.3781 77.5604 1.14844 77.7867 1.14844 78.1262V81.5965C1.14844 81.936 1.3781 82.2001 1.7226 82.2001C9.83743 82.2001 11.1389 75.0708 12.2872 68.7714C13.2059 63.5659 14.0097 59.0771 18.2202 59.0771C18.5647 59.0771 18.8326 58.813 18.8326 58.5112V55.1541C18.8326 54.8523 18.5647 54.5883 18.2202 54.5883ZM20.8614 54.5883C20.5169 54.5883 20.2872 54.8523 20.2872 55.1541V58.5112C20.2872 58.813 20.5169 59.0771 20.8614 59.0771H26.1054L22.3159 81.4834C22.2776 81.6342 22.3159 81.8228 22.4307 81.936C22.5456 82.0869 22.6987 82.1623 22.8901 82.1623H26.7944C27.0623 82.1623 27.3303 81.936 27.3685 81.672L31.1963 59.0771H36.6317C36.9379 59.0771 37.2059 58.813 37.2059 58.5112V55.1541C37.2059 54.8523 36.9379 54.5883 36.6317 54.5883H20.8614ZM50.6183 54.5883H46.6757C46.3695 54.5883 46.1016 54.8523 46.1016 55.1541V77.8999H43.8049V55.1541C43.8049 54.8523 43.5752 54.5883 43.2307 54.5883H39.2882C38.9437 54.5883 38.714 54.8523 38.714 55.1541V77.5981C38.714 78.4657 38.8671 79.2201 39.2499 79.8614C39.6327 80.4649 40.092 80.993 40.7044 81.4079C41.3169 81.7851 41.9676 82.0869 42.7331 82.2755C43.4604 82.4641 44.1877 82.5395 44.9532 82.5395C45.7188 82.5395 46.4843 82.4641 47.1733 82.2755C47.9389 82.0869 48.5896 81.7851 49.202 81.4079C49.8145 80.993 50.3121 80.4649 50.6566 79.8614C51.0393 79.2201 51.2307 78.4657 51.2307 77.5981V55.1541C51.2307 54.8523 50.9628 54.5883 50.6183 54.5883ZM66.3423 68.3564C66.3423 65.3388 66.3423 62.2834 66.3423 59.2657C66.3423 58.3981 66.1127 57.6814 65.6916 57.0401C65.2706 56.4743 64.7347 55.9839 64.084 55.6067C63.4715 55.2672 62.7825 55.0032 62.017 54.8146C61.2897 54.6637 60.5241 54.5883 59.7969 54.5883H54.0552C53.7107 54.5883 53.4811 54.8523 53.4811 55.1541V81.5588C53.4811 81.8983 53.7107 82.1623 54.0552 82.1623H59.7969C60.5241 82.1623 61.2897 82.0869 62.017 81.936C62.8208 81.7474 63.5098 81.4834 64.1222 81.1439C64.7729 80.7667 65.3088 80.2763 65.7299 79.7105C66.1509 79.0692 66.3806 78.3148 66.3806 77.4472C66.3806 74.4295 66.3806 71.3741 66.3423 68.3564ZM61.2514 77.4472H61.2131C61.1749 77.4849 61.1366 77.5227 61.1366 77.5227C61.0217 77.5604 60.9069 77.5981 60.7538 77.5981C60.7155 77.5981 60.6772 77.5981 60.6007 77.5981C60.4476 77.6358 60.2945 77.6735 60.1796 77.6735H58.5337V59.0771H59.7969C59.8734 59.0771 59.9883 59.0771 60.1796 59.0771C60.371 59.1148 60.5241 59.1148 60.6772 59.1902C60.8686 59.228 61.0217 59.2657 61.1366 59.3034C61.1749 59.3411 61.2131 59.3788 61.2514 59.3788C61.2514 59.3788 61.2514 59.4166 61.2514 59.4543V77.4472ZM75.6874 54.7769C75.5726 54.6637 75.3812 54.5883 75.2281 54.5883H71.3238C71.0175 54.5883 70.7879 54.8146 70.7496 55.1164L67.6108 81.5211C67.5726 81.672 67.6108 81.8228 67.7257 81.9737C67.8405 82.0869 67.9936 82.1623 68.185 82.1623H72.0893C72.3955 82.1623 72.6252 81.936 72.6635 81.6342L75.8022 55.2295C75.8405 55.0786 75.7639 54.9278 75.6874 54.7769ZM91.2342 54.3242C83.3107 54.3242 76.9184 60.6614 76.9184 68.4696C76.9184 76.2401 83.3107 82.5773 91.2342 82.5773C99.1194 82.5773 105.55 76.2401 105.55 68.4696C105.55 60.6614 99.1194 54.3242 91.2342 54.3242ZM91.2342 77.9376C85.9136 77.9376 81.6265 73.6751 81.6265 68.4696C81.6265 63.2264 85.9136 58.9639 91.2342 58.9639C96.5165 58.9639 100.842 63.2264 100.842 68.4696C100.842 73.6751 96.5165 77.9376 91.2342 77.9376ZM122.212 54.5883C113.791 54.5883 112.566 61.7553 111.495 68.0547C110.614 73.147 109.849 77.5604 105.715 77.5604C105.37 77.5604 105.141 77.7867 105.141 78.1262V81.5965C105.141 81.936 105.37 82.2001 105.715 82.2001C113.83 82.2001 115.131 75.0708 116.279 68.7714C117.198 63.5659 118.002 59.0771 122.212 59.0771C122.557 59.0771 122.825 58.813 122.825 58.5112V55.1541C122.825 54.8523 122.557 54.5883 122.212 54.5883Z" stroke="#4C668B" mask="url(#path-6-inside-1_3058_368)"/>
<path d="M206.773 41.3043C206.773 43.1046 205.29 44.5764 203.445 44.5764C201.6 44.5764 200.117 43.1046 200.117 41.3043C200.117 39.5041 201.6 38.0322 203.445 38.0322C205.29 38.0322 206.773 39.5041 206.773 41.3043Z" stroke="#4C668B"/>
<mask id="mask0_3058_368" style="mask-type:luminance" maskUnits="userSpaceOnUse" x="128" y="40" width="58" height="56">
<path d="M185.264 40.5498H128.996V95.9997H185.264V40.5498Z" fill="white"/>
</mask>
<g mask="url(#mask0_3058_368)">
<path d="M184.502 79.4186C184.622 80.607 183.625 81.6371 182.325 81.6371H172.126C170.864 81.6371 169.794 80.6027 169.482 79.2731C168.165 73.6732 163.075 69.5075 157.004 69.5075C150.933 69.5075 145.843 73.6732 144.526 79.2731C144.214 80.6027 143.144 81.6371 141.882 81.6371H131.684C130.383 81.6371 129.387 80.607 129.506 79.4186C130.89 65.6651 142.668 54.9121 157.004 54.9121C171.34 54.9121 183.118 65.6651 184.502 79.4186Z" stroke="#4C668B"/>
</g>
</g>
<defs>
<clipPath id="clip0_3058_368">
<rect width="207.273" height="96" fill="white"/>
</clipPath>
</defs>
</svg>
