<svg width="204" height="96" viewBox="0 0 204 96" fill="none" xmlns="http://www.w3.org/2000/svg">
<g clip-path="url(#clip0_3058_355)">
<path d="M15.5898 46.463V12.9482H18.8987V46.463H15.5898Z" stroke="#C69177"/>
<path d="M0.533834 27.8565L34.0035 28.1489L33.9746 31.4631L0.504948 31.1707L0.533834 27.8565Z" stroke="#C69177"/>
<path d="M5.52651 17.6296L31.1671 39.1719L29.0397 41.7105L3.39913 20.1681L5.52651 17.6296Z" stroke="#C69177"/>
<path d="M31.0836 20.1169L5.63169 41.8825L3.48227 39.3627L28.9342 17.5971L31.0836 20.1169Z" stroke="#C69177"/>
<path d="M53.722 44.8877C58.2805 44.8877 61.4073 41.4173 61.4073 37.3812C61.4073 33.76 58.8456 31.3835 56.4722 30.1765L53.0816 28.479C51.4616 27.6491 50.5198 26.6307 50.5198 25.0841C50.5198 23.3867 51.8007 22.0664 53.7597 22.0664C55.794 22.0664 57.753 23.7262 58.9209 25.7254L62.4999 22.8963C60.5032 19.7277 57.5647 17.7285 53.835 17.7285C49.0506 17.7285 45.9237 21.0102 45.9237 25.2727C45.9237 29.0071 48.1841 31.2704 50.7458 32.5529L54.3625 34.3635C56.1708 35.2688 56.8112 36.4004 56.8112 37.6829C56.8112 39.1918 55.8317 40.5497 53.722 40.5497C51.8384 40.5497 49.8417 39.0786 48.5985 36.7022L45.0195 39.5313C47.0916 42.9262 49.8794 44.8877 53.722 44.8877ZM64.3741 44.5104H68.8572V18.1057H64.3741V44.5104ZM79.6223 44.8877C84.1808 44.8877 87.3076 41.4173 87.3076 37.3812C87.3076 33.76 84.7458 31.3835 82.3724 30.1765L78.9819 28.479C77.3619 27.6491 76.4201 26.6307 76.4201 25.0841C76.4201 23.3867 77.701 22.0664 79.66 22.0664C81.6943 22.0664 83.6533 23.7262 84.8212 25.7254L88.4001 22.8963C86.4035 19.7277 83.465 17.7285 79.7353 17.7285C74.9508 17.7285 71.824 21.0102 71.824 25.2727C71.824 29.0071 74.0844 31.2704 76.6461 32.5529L80.2627 34.3635C82.0711 35.2688 82.7115 36.4004 82.7115 37.6829C82.7115 39.1918 81.732 40.5497 79.6223 40.5497C77.7386 40.5497 75.742 39.0786 74.4988 36.7022L70.9198 39.5313C72.9918 42.9262 75.7796 44.8877 79.6223 44.8877ZM96.4993 44.5104H100.982V35.91L109.384 18.1057H104.674L98.722 31.2704L92.5436 18.1057H87.8345L96.4993 35.91V44.5104ZM111.061 44.5104H115.544V33.9863H120.818C126.356 33.9863 129.144 30.0256 129.144 26.0271C129.144 22.0664 126.356 18.1057 120.818 18.1057H111.061V44.5104ZM115.544 29.7238V22.3682H120.856C123.305 22.3682 124.51 24.2165 124.51 26.0271C124.51 27.8755 123.305 29.7238 120.856 29.7238H115.544ZM131.406 44.5104H135.889V33.2319H148.057V44.5104H152.54V18.1057H148.057V28.9694H135.889V18.1057H131.406V44.5104ZM165.392 44.8877C170.553 44.8877 174.66 41.1156 174.66 35.8346V18.1057H170.176V35.3442C170.176 38.626 168.142 40.4743 165.392 40.4743C162.604 40.4743 160.607 38.626 160.607 35.3442V18.1057H156.124V35.8346C156.124 41.1156 160.193 44.8877 165.392 44.8877ZM185.247 44.8877C189.805 44.8877 192.932 41.4173 192.932 37.3812C192.932 33.76 190.37 31.3835 187.997 30.1765L184.606 28.479C182.986 27.6491 182.045 26.6307 182.045 25.0841C182.045 23.3867 183.326 22.0664 185.285 22.0664C187.319 22.0664 189.277 23.7262 190.445 25.7254L194.024 22.8963C192.028 19.7277 189.089 17.7285 185.36 17.7285C180.575 17.7285 177.449 21.0102 177.449 25.2727C177.449 29.0071 179.709 31.2704 182.271 32.5529L185.887 34.3635C187.696 35.2688 188.336 36.4004 188.336 37.6829C188.336 39.1918 187.357 40.5497 185.247 40.5497C183.363 40.5497 181.367 39.0786 180.123 36.7022L176.544 39.5313C178.616 42.9262 181.404 44.8877 185.247 44.8877Z" fill="#C69177"/>
<mask id="path-6-inside-1_3058_355" fill="white">
<path d="M17.9331 54.5883C9.64499 54.5883 8.43945 61.7553 7.3846 68.0547C6.51812 73.147 5.76465 77.5604 1.69596 77.5604C1.3569 77.5604 1.13086 77.7867 1.13086 78.1262V81.5965C1.13086 81.936 1.3569 82.2001 1.69596 82.2001C9.68266 82.2001 10.9635 75.0708 12.0937 68.7714C12.9979 63.5659 13.789 59.0771 17.9331 59.0771C18.2721 59.0771 18.5358 58.813 18.5358 58.5112V55.1541C18.5358 54.8523 18.2721 54.5883 17.9331 54.5883ZM20.5325 54.5883C20.1935 54.5883 19.9674 54.8523 19.9674 55.1541V58.5112C19.9674 58.813 20.1935 59.0771 20.5325 59.0771H25.6937L21.9641 81.4834C21.9264 81.6342 21.9641 81.8228 22.0771 81.936C22.1901 82.0869 22.3408 82.1623 22.5292 82.1623H26.3719C26.6356 82.1623 26.8993 81.936 26.937 81.672L30.7043 59.0771H36.0539C36.3552 59.0771 36.6189 58.813 36.6189 58.5112V55.1541C36.6189 54.8523 36.3552 54.5883 36.0539 54.5883H20.5325ZM49.8196 54.5883H45.9393C45.6379 54.5883 45.3742 54.8523 45.3742 55.1541V77.8999H43.1138V55.1541C43.1138 54.8523 42.8878 54.5883 42.5487 54.5883H38.6684C38.3293 54.5883 38.1033 54.8523 38.1033 55.1541V77.5981C38.1033 78.4657 38.254 79.2201 38.6307 79.8614C39.0074 80.4649 39.4595 80.993 40.0623 81.4079C40.665 81.7851 41.3055 82.0869 42.0589 82.2755C42.7747 82.4641 43.4905 82.5395 44.244 82.5395C44.9975 82.5395 45.7509 82.4641 46.429 82.2755C47.1825 82.0869 47.8229 81.7851 48.4257 81.4079C49.0285 80.993 49.5182 80.4649 49.8573 79.8614C50.234 79.2201 50.4224 78.4657 50.4224 77.5981V55.1541C50.4224 54.8523 50.1587 54.5883 49.8196 54.5883ZM65.2954 68.3564C65.2954 65.3388 65.2954 62.2834 65.2954 59.2657C65.2954 58.3981 65.0693 57.6814 64.6549 57.0401C64.2405 56.4743 63.7131 55.9839 63.0726 55.6067C62.4699 55.2672 61.7918 55.0032 61.0383 54.8146C60.3225 54.6637 59.569 54.5883 58.8533 54.5883H53.2023C52.8632 54.5883 52.6372 54.8523 52.6372 55.1541V81.5588C52.6372 81.8983 52.8632 82.1623 53.2023 82.1623H58.8533C59.569 82.1623 60.3225 82.0869 61.0383 81.936C61.8294 81.7474 62.5075 81.4834 63.1103 81.1439C63.7508 80.7667 64.2782 80.2763 64.6926 79.7105C65.107 79.0692 65.333 78.3148 65.333 77.4472C65.333 74.4295 65.333 71.3741 65.2954 68.3564ZM60.2848 77.4472H60.2472C60.2095 77.4849 60.1718 77.5226 60.1718 77.5226C60.0588 77.5604 59.9458 77.5981 59.7951 77.5981C59.7574 77.5981 59.7197 77.5981 59.6444 77.5981C59.4937 77.6358 59.343 77.6735 59.23 77.6735H57.61V59.0771H58.8533C58.9286 59.0771 59.0416 59.0771 59.23 59.0771C59.4183 59.1148 59.569 59.1148 59.7197 59.1902C59.9081 59.2279 60.0588 59.2657 60.1718 59.3034C60.2095 59.3411 60.2472 59.3788 60.2848 59.3788C60.2848 59.3788 60.2848 59.4166 60.2848 59.4543V77.4472ZM74.4929 54.7769C74.3799 54.6637 74.1915 54.5883 74.0408 54.5883H70.1981C69.8968 54.5883 69.6707 54.8146 69.633 55.1164L66.5438 81.5211C66.5062 81.672 66.5438 81.8228 66.6569 81.9737C66.7699 82.0869 66.9206 82.1623 67.1089 82.1623H70.9516C71.253 82.1623 71.479 81.936 71.5167 81.6342L74.6059 55.2295C74.6436 55.0786 74.5682 54.9278 74.4929 54.7769ZM89.7942 54.3242C81.9959 54.3242 75.7044 60.6614 75.7044 68.4696C75.7044 76.2401 81.9959 82.5773 89.7942 82.5773C97.5549 82.5773 103.884 76.2401 103.884 68.4696C103.884 60.6614 97.5549 54.3242 89.7942 54.3242ZM89.7942 77.9376C84.5576 77.9376 80.3382 73.6751 80.3382 68.4696C80.3382 63.2264 84.5576 58.9639 89.7942 58.9639C94.9931 58.9639 99.2502 63.2264 99.2502 68.4696C99.2502 73.6751 94.9931 77.9376 89.7942 77.9376ZM120.283 54.5883C111.995 54.5883 110.79 61.7553 109.735 68.0547C108.868 73.147 108.115 77.5604 104.046 77.5604C103.707 77.5604 103.481 77.7867 103.481 78.1262V81.5965C103.481 81.936 103.707 82.2001 104.046 82.2001C112.033 82.2001 113.314 75.0708 114.444 68.7714C115.348 63.5659 116.139 59.0771 120.283 59.0771C120.622 59.0771 120.886 58.813 120.886 58.5112V55.1541C120.886 54.8523 120.622 54.5883 120.283 54.5883Z"/>
</mask>
<path d="M17.9331 54.5883C9.64499 54.5883 8.43945 61.7553 7.3846 68.0547C6.51812 73.147 5.76465 77.5604 1.69596 77.5604C1.3569 77.5604 1.13086 77.7867 1.13086 78.1262V81.5965C1.13086 81.936 1.3569 82.2001 1.69596 82.2001C9.68266 82.2001 10.9635 75.0708 12.0937 68.7714C12.9979 63.5659 13.789 59.0771 17.9331 59.0771C18.2721 59.0771 18.5358 58.813 18.5358 58.5112V55.1541C18.5358 54.8523 18.2721 54.5883 17.9331 54.5883ZM20.5325 54.5883C20.1935 54.5883 19.9674 54.8523 19.9674 55.1541V58.5112C19.9674 58.813 20.1935 59.0771 20.5325 59.0771H25.6937L21.9641 81.4834C21.9264 81.6342 21.9641 81.8228 22.0771 81.936C22.1901 82.0869 22.3408 82.1623 22.5292 82.1623H26.3719C26.6356 82.1623 26.8993 81.936 26.937 81.672L30.7043 59.0771H36.0539C36.3552 59.0771 36.6189 58.813 36.6189 58.5112V55.1541C36.6189 54.8523 36.3552 54.5883 36.0539 54.5883H20.5325ZM49.8196 54.5883H45.9393C45.6379 54.5883 45.3742 54.8523 45.3742 55.1541V77.8999H43.1138V55.1541C43.1138 54.8523 42.8878 54.5883 42.5487 54.5883H38.6684C38.3293 54.5883 38.1033 54.8523 38.1033 55.1541V77.5981C38.1033 78.4657 38.254 79.2201 38.6307 79.8614C39.0074 80.4649 39.4595 80.993 40.0623 81.4079C40.665 81.7851 41.3055 82.0869 42.0589 82.2755C42.7747 82.4641 43.4905 82.5395 44.244 82.5395C44.9975 82.5395 45.7509 82.4641 46.429 82.2755C47.1825 82.0869 47.8229 81.7851 48.4257 81.4079C49.0285 80.993 49.5182 80.4649 49.8573 79.8614C50.234 79.2201 50.4224 78.4657 50.4224 77.5981V55.1541C50.4224 54.8523 50.1587 54.5883 49.8196 54.5883ZM65.2954 68.3564C65.2954 65.3388 65.2954 62.2834 65.2954 59.2657C65.2954 58.3981 65.0693 57.6814 64.6549 57.0401C64.2405 56.4743 63.7131 55.9839 63.0726 55.6067C62.4699 55.2672 61.7918 55.0032 61.0383 54.8146C60.3225 54.6637 59.569 54.5883 58.8533 54.5883H53.2023C52.8632 54.5883 52.6372 54.8523 52.6372 55.1541V81.5588C52.6372 81.8983 52.8632 82.1623 53.2023 82.1623H58.8533C59.569 82.1623 60.3225 82.0869 61.0383 81.936C61.8294 81.7474 62.5075 81.4834 63.1103 81.1439C63.7508 80.7667 64.2782 80.2763 64.6926 79.7105C65.107 79.0692 65.333 78.3148 65.333 77.4472C65.333 74.4295 65.333 71.3741 65.2954 68.3564ZM60.2848 77.4472H60.2472C60.2095 77.4849 60.1718 77.5226 60.1718 77.5226C60.0588 77.5604 59.9458 77.5981 59.7951 77.5981C59.7574 77.5981 59.7197 77.5981 59.6444 77.5981C59.4937 77.6358 59.343 77.6735 59.23 77.6735H57.61V59.0771H58.8533C58.9286 59.0771 59.0416 59.0771 59.23 59.0771C59.4183 59.1148 59.569 59.1148 59.7197 59.1902C59.9081 59.2279 60.0588 59.2657 60.1718 59.3034C60.2095 59.3411 60.2472 59.3788 60.2848 59.3788C60.2848 59.3788 60.2848 59.4166 60.2848 59.4543V77.4472ZM74.4929 54.7769C74.3799 54.6637 74.1915 54.5883 74.0408 54.5883H70.1981C69.8968 54.5883 69.6707 54.8146 69.633 55.1164L66.5438 81.5211C66.5062 81.672 66.5438 81.8228 66.6569 81.9737C66.7699 82.0869 66.9206 82.1623 67.1089 82.1623H70.9516C71.253 82.1623 71.479 81.936 71.5167 81.6342L74.6059 55.2295C74.6436 55.0786 74.5682 54.9278 74.4929 54.7769ZM89.7942 54.3242C81.9959 54.3242 75.7044 60.6614 75.7044 68.4696C75.7044 76.2401 81.9959 82.5773 89.7942 82.5773C97.5549 82.5773 103.884 76.2401 103.884 68.4696C103.884 60.6614 97.5549 54.3242 89.7942 54.3242ZM89.7942 77.9376C84.5576 77.9376 80.3382 73.6751 80.3382 68.4696C80.3382 63.2264 84.5576 58.9639 89.7942 58.9639C94.9931 58.9639 99.2502 63.2264 99.2502 68.4696C99.2502 73.6751 94.9931 77.9376 89.7942 77.9376ZM120.283 54.5883C111.995 54.5883 110.79 61.7553 109.735 68.0547C108.868 73.147 108.115 77.5604 104.046 77.5604C103.707 77.5604 103.481 77.7867 103.481 78.1262V81.5965C103.481 81.936 103.707 82.2001 104.046 82.2001C112.033 82.2001 113.314 75.0708 114.444 68.7714C115.348 63.5659 116.139 59.0771 120.283 59.0771C120.622 59.0771 120.886 58.813 120.886 58.5112V55.1541C120.886 54.8523 120.622 54.5883 120.283 54.5883Z" stroke="#C69177" mask="url(#path-6-inside-1_3058_355)"/>
<path d="M203.499 41.3043C203.499 43.1121 202.036 44.5764 200.232 44.5764C198.428 44.5764 196.965 43.1121 196.965 41.3043C196.965 39.4966 198.428 38.0322 200.232 38.0322C202.036 38.0322 203.499 39.4966 203.499 41.3043Z" stroke="#C69177"/>
<mask id="mask0_3058_355" style="mask-type:luminance" maskUnits="userSpaceOnUse" x="126" y="40" width="57" height="56">
<path d="M182.338 40.5498H126.959V95.9997H182.338V40.5498Z" fill="white"/>
</mask>
<g mask="url(#mask0_3058_355)">
<path d="M181.581 79.4178C181.699 80.6149 180.713 81.6371 179.445 81.6371H169.408C168.176 81.6371 167.122 80.6093 166.813 79.2748C165.519 73.6791 160.509 69.5075 154.525 69.5075C148.541 69.5075 143.531 73.6791 142.236 79.2748C141.927 80.6093 140.874 81.6371 139.642 81.6371H129.604C128.337 81.6371 127.35 80.6149 127.469 79.4178C128.831 65.6583 140.426 54.9121 154.525 54.9121C168.624 54.9121 180.218 65.6583 181.581 79.4178Z" stroke="#C69177"/>
</g>
</g>
<defs>
<clipPath id="clip0_3058_355">
<rect width="204" height="96" fill="white"/>
</clipPath>
</defs>
</svg>
