<svg width="25" height="24" viewBox="0 0 25 24" fill="none" xmlns="http://www.w3.org/2000/svg">
<g opacity="0.3">
<path d="M14.592 3.45398L16.713 5.57498M16.713 5.57498L18.126 4.16098C18.3135 3.97351 18.5678 3.86819 18.833 3.86819C19.0982 3.86819 19.3525 3.97351 19.54 4.16098L20.248 4.86798C20.4355 5.05551 20.5408 5.30982 20.5408 5.57498C20.5408 5.84014 20.4355 6.09445 20.248 6.28198L18.833 7.69698M16.713 5.57498L18.833 7.69698M20.956 9.81798L18.833 7.69698M14.592 7.69698L16.713 9.81698C16.806 9.90985 16.8797 10.0201 16.9301 10.1415C16.9804 10.2629 17.0063 10.3931 17.0063 10.5245C17.0063 10.6559 16.9804 10.786 16.9301 10.9074C16.8797 11.0288 16.806 11.1391 16.713 11.232L9.07601 18.87C8.98278 18.9634 8.87198 19.0375 8.75001 19.088L6.25301 20.114C5.02001 20.622 3.78701 19.389 4.29501 18.156L5.32301 15.66C5.37331 15.5376 5.44741 15.4265 5.54101 15.333L13.177 7.69698C13.2699 7.604 13.3802 7.53024 13.5016 7.47992C13.623 7.4296 13.7531 7.40369 13.8845 7.40369C14.0159 7.40369 14.146 7.4296 14.2674 7.47992C14.3888 7.53024 14.4991 7.604 14.592 7.69698Z" stroke="black" stroke-width="1.5" stroke-linecap="round" stroke-linejoin="round"/>
</g>
</svg>
