<svg width="25" height="24" viewBox="0 0 25 24" fill="none" xmlns="http://www.w3.org/2000/svg">
<g opacity="0.3" clip-path="url(#clip0_1_981)">
<path d="M15.0055 3.22259L22.0765 10.2936C22.4515 10.6686 22.6621 11.1773 22.6621 11.7076C22.6621 12.2379 22.4515 12.7465 22.0765 13.1216L16.4205 18.7786C16.2348 18.9645 16.0142 19.1121 15.7714 19.2127C15.5286 19.3134 15.2684 19.3652 15.0055 19.3652C14.7427 19.3652 14.4825 19.3134 14.2397 19.2127C13.9969 19.1121 13.7763 18.9645 13.5905 18.7786L6.52054 11.7076L15.0055 3.22259ZM15.0055 3.22259L16.4195 1.80859" stroke="black" stroke-width="1.5" stroke-linecap="round" stroke-linejoin="round"/>
<path d="M4.71289 15C4.71289 15 1.71289 17.993 1.71289 19.887C1.71289 21.542 3.05789 22.887 4.71289 22.887C6.36889 22.887 7.70089 21.542 7.71289 19.887C7.70289 17.992 4.71289 15 4.71289 15Z" stroke="black" stroke-width="1.5" stroke-miterlimit="1.5" stroke-linecap="round" stroke-linejoin="round"/>
</g>
<defs>
<clipPath id="clip0_1_981">
<rect width="24" height="24" fill="white" transform="matrix(-1 0 0 1 24.7129 0)"/>
</clipPath>
</defs>
</svg>
