<svg width="220" height="28" viewBox="0 0 220 28" fill="none" xmlns="http://www.w3.org/2000/svg">
<path d="M12.256 22H6.496V0.559999H12.256V22ZM18.432 5.68H0.32V0.559999H18.432V5.68ZM34.43 22H28.67V13.168C28.67 12.208 28.542 11.4827 28.286 10.992C28.03 10.48 27.4647 10.224 26.59 10.224C26.0353 10.224 25.6087 10.3093 25.31 10.48C25.0113 10.6507 24.798 10.9707 24.67 11.44C24.5633 11.888 24.51 12.5387 24.51 13.392L24.414 11.568C24.5207 10.608 24.7553 9.69067 25.118 8.816C25.502 7.94133 26.0567 7.23733 26.782 6.704C27.5287 6.14933 28.4993 5.872 29.694 5.872C31.166 5.872 32.318 6.30933 33.15 7.184C34.0033 8.05867 34.43 9.30667 34.43 10.928V22ZM24.51 22H18.75V0.559999H24.51V22ZM43.3717 22.32C41.5584 22.32 40.0224 21.968 38.7637 21.264C37.5051 20.56 36.5451 19.5893 35.8837 18.352C35.2437 17.1147 34.9237 15.696 34.9237 14.096C34.9237 12.496 35.2437 11.0773 35.8837 9.84C36.5451 8.60267 37.4624 7.632 38.6357 6.928C39.8304 6.224 41.2277 5.872 42.8277 5.872C44.6411 5.872 46.1131 6.224 47.2437 6.928C48.3744 7.632 49.2064 8.54933 49.7397 9.68C50.2944 10.8107 50.5717 12.016 50.5717 13.296C50.5717 13.68 50.5504 14.1173 50.5077 14.608C50.4864 15.0987 50.4544 15.44 50.4117 15.632H38.9237V12.656H46.1877L45.4197 13.008C45.4197 12.0907 45.2277 11.3867 44.8437 10.896C44.4597 10.4053 43.7984 10.16 42.8597 10.16C42.0277 10.16 41.3664 10.3947 40.8757 10.864C40.4064 11.3333 40.1717 12.0373 40.1717 12.976V14.736C40.1717 15.4613 40.3104 16.048 40.5877 16.496C40.8864 16.9227 41.2811 17.232 41.7717 17.424C42.2837 17.616 42.8491 17.712 43.4677 17.712C44.0011 17.712 44.4704 17.6587 44.8757 17.552C45.3024 17.424 45.6757 17.232 45.9957 16.976C46.3371 16.6987 46.6037 16.336 46.7957 15.888L50.2837 19.216C49.6864 20.0053 48.8331 20.72 47.7237 21.36C46.6357 22 45.1851 22.32 43.3717 22.32ZM61.3575 22H55.5975V0.559999H61.3575V22ZM70.2535 14.544H57.6135V9.424H70.2535V14.544ZM71.8535 5.68H57.6135V0.559999H71.8535V5.68ZM78.1087 4.752H72.3487V0.559999H78.1087V4.752ZM78.1087 22H72.3487V6.192H78.1087V22ZM95.0613 22H89.3013V13.168C89.3013 12.208 89.1733 11.4827 88.9173 10.992C88.6613 10.48 88.0959 10.224 87.2213 10.224C86.6666 10.224 86.2399 10.3093 85.9412 10.48C85.6426 10.6507 85.4292 10.9707 85.3012 11.44C85.1946 11.888 85.1413 12.5387 85.1413 13.392L85.0452 11.568C85.1519 10.608 85.3866 9.69067 85.7492 8.816C86.1332 7.94133 86.6879 7.23733 87.4132 6.704C88.1599 6.14933 89.1306 5.872 90.3253 5.872C91.7973 5.872 92.9493 6.30933 93.7812 7.184C94.6346 8.05867 95.0613 9.30667 95.0613 10.928V22ZM85.1413 22H79.3812V6.192H85.1413V22ZM111.49 22H108.226C107.628 22 107.052 21.904 106.498 21.712C105.964 21.52 105.527 21.2107 105.186 20.784C104.844 20.336 104.674 19.7387 104.674 18.992V14.256L104.93 13.456C104.93 12.4747 104.823 11.7707 104.61 11.344C104.396 10.9173 103.831 10.704 102.914 10.704C101.996 10.704 101.068 10.928 100.13 11.376C99.1908 11.824 98.3908 12.4213 97.7295 13.168L95.1695 8.944C95.8308 8.34667 96.5775 7.824 97.4095 7.376C98.2415 6.90667 99.1482 6.544 100.13 6.288C101.111 6.01067 102.146 5.872 103.234 5.872C105.26 5.872 106.86 6.37333 108.034 7.376C109.207 8.37867 109.794 9.89333 109.794 11.92V16.688C109.794 17.0293 109.847 17.2747 109.954 17.424C110.082 17.552 110.284 17.616 110.562 17.616H111.49V22ZM99.7455 22.352C98.5935 22.352 97.6122 22.0427 96.8015 21.424C96.0122 20.8053 95.6175 19.7813 95.6175 18.352C95.6175 17.072 96.0015 16.048 96.7695 15.28C97.5588 14.4907 98.8282 13.8293 100.578 13.296L105.186 11.888L105.602 15.184L102.082 16.432C101.548 16.624 101.186 16.8053 100.994 16.976C100.823 17.1467 100.738 17.3387 100.738 17.552C100.738 17.808 100.834 18.0107 101.026 18.16C101.239 18.288 101.548 18.352 101.954 18.352C102.423 18.352 102.828 18.3093 103.17 18.224C103.511 18.1173 103.788 17.968 104.002 17.776C104.236 17.584 104.407 17.3387 104.514 17.04C104.62 16.7413 104.674 16.3893 104.674 15.984L104.738 17.488C104.588 18.192 104.332 18.9173 103.97 19.664C103.628 20.4107 103.116 21.0507 102.434 21.584C101.772 22.096 100.876 22.352 99.7455 22.352ZM127.345 22H121.585V13.168C121.585 12.208 121.457 11.4827 121.201 10.992C120.945 10.48 120.38 10.224 119.505 10.224C118.95 10.224 118.524 10.3093 118.225 10.48C117.926 10.6507 117.713 10.9707 117.585 11.44C117.478 11.888 117.425 12.5387 117.425 13.392L117.329 11.568C117.436 10.608 117.67 9.69067 118.033 8.816C118.417 7.94133 118.972 7.23733 119.697 6.704C120.444 6.14933 121.414 5.872 122.609 5.872C124.081 5.872 125.233 6.30933 126.065 7.184C126.918 8.05867 127.345 9.30667 127.345 10.928V22ZM117.425 22H111.665V6.192H117.425V22ZM136.063 22.32C134.377 22.32 132.916 21.968 131.679 21.264C130.463 20.5387 129.513 19.5573 128.831 18.32C128.169 17.0613 127.839 15.6533 127.839 14.096C127.839 12.5173 128.169 11.1093 128.831 9.872C129.513 8.63467 130.463 7.664 131.679 6.96C132.916 6.23467 134.377 5.872 136.063 5.872C137.833 5.872 139.369 6.27733 140.671 7.088C141.972 7.89867 142.9 8.912 143.455 10.128L138.975 13.072C138.761 12.2613 138.431 11.6533 137.983 11.248C137.556 10.8427 137.001 10.64 136.319 10.64C135.828 10.64 135.38 10.768 134.975 11.024C134.569 11.2587 134.249 11.632 134.015 12.144C133.801 12.6347 133.695 13.2853 133.695 14.096C133.695 14.8853 133.801 15.536 134.015 16.048C134.249 16.56 134.569 16.944 134.975 17.2C135.38 17.4347 135.828 17.552 136.319 17.552C137.001 17.552 137.556 17.3493 137.983 16.944C138.431 16.5387 138.761 15.9307 138.975 15.12L143.455 18.064C142.9 19.28 141.972 20.2933 140.671 21.104C139.369 21.9147 137.833 22.32 136.063 22.32ZM150.913 22.32C149.1 22.32 147.564 21.968 146.305 21.264C145.046 20.56 144.086 19.5893 143.425 18.352C142.785 17.1147 142.465 15.696 142.465 14.096C142.465 12.496 142.785 11.0773 143.425 9.84C144.086 8.60267 145.004 7.632 146.177 6.928C147.372 6.224 148.769 5.872 150.369 5.872C152.182 5.872 153.654 6.224 154.785 6.928C155.916 7.632 156.748 8.54933 157.281 9.68C157.836 10.8107 158.113 12.016 158.113 13.296C158.113 13.68 158.092 14.1173 158.049 14.608C158.028 15.0987 157.996 15.44 157.953 15.632H146.465V12.656H153.729L152.961 13.008C152.961 12.0907 152.769 11.3867 152.385 10.896C152.001 10.4053 151.34 10.16 150.401 10.16C149.569 10.16 148.908 10.3947 148.417 10.864C147.948 11.3333 147.713 12.0373 147.713 12.976V14.736C147.713 15.4613 147.852 16.048 148.129 16.496C148.428 16.9227 148.822 17.232 149.313 17.424C149.825 17.616 150.39 17.712 151.009 17.712C151.542 17.712 152.012 17.6587 152.417 17.552C152.844 17.424 153.217 17.232 153.537 16.976C153.878 16.6987 154.145 16.336 154.337 15.888L157.825 19.216C157.228 20.0053 156.374 20.72 155.265 21.36C154.177 22 152.726 22.32 150.913 22.32ZM168.163 22H162.019L169.603 0.559999H177.635L185.219 22H178.915L174.979 10.064L173.539 4.688L172.099 10.064L168.163 22ZM179.203 18H166.723V13.2H179.203V18ZM195.822 22.32C194.585 22.32 193.635 22.0427 192.974 21.488C192.334 20.9333 191.875 20.2293 191.598 19.376C191.342 18.5013 191.161 17.584 191.054 16.624L191.15 14.8C191.15 15.6533 191.246 16.3147 191.438 16.784C191.651 17.232 191.929 17.5413 192.27 17.712C192.611 17.8827 192.985 17.968 193.39 17.968C194.329 17.968 195.011 17.616 195.438 16.912C195.865 16.208 196.078 15.2693 196.078 14.096C196.078 12.9227 195.865 11.984 195.438 11.28C195.011 10.576 194.329 10.224 193.39 10.224C192.985 10.224 192.611 10.3093 192.27 10.48C191.929 10.6507 191.651 10.9707 191.438 11.44C191.246 11.888 191.15 12.5387 191.15 13.392L191.054 11.568C191.161 10.608 191.374 9.69067 191.694 8.816C192.014 7.94133 192.526 7.23733 193.23 6.704C193.934 6.14933 194.905 5.872 196.142 5.872C197.294 5.872 198.307 6.18133 199.182 6.8C200.057 7.41867 200.729 8.336 201.198 9.552C201.689 10.768 201.934 12.2827 201.934 14.096C201.934 15.888 201.689 17.4027 201.198 18.64C200.707 19.856 200.003 20.7733 199.086 21.392C198.169 22.0107 197.081 22.32 195.822 22.32ZM191.15 27.952H185.39V6.192H191.15V27.952ZM213.011 22.32C211.773 22.32 210.824 22.0427 210.163 21.488C209.523 20.9333 209.064 20.2293 208.787 19.376C208.531 18.5013 208.349 17.584 208.243 16.624L208.339 14.8C208.339 15.6533 208.435 16.3147 208.627 16.784C208.84 17.232 209.117 17.5413 209.459 17.712C209.8 17.8827 210.173 17.968 210.579 17.968C211.517 17.968 212.2 17.616 212.627 16.912C213.053 16.208 213.267 15.2693 213.267 14.096C213.267 12.9227 213.053 11.984 212.627 11.28C212.2 10.576 211.517 10.224 210.579 10.224C210.173 10.224 209.8 10.3093 209.459 10.48C209.117 10.6507 208.84 10.9707 208.627 11.44C208.435 11.888 208.339 12.5387 208.339 13.392L208.243 11.568C208.349 10.608 208.563 9.69067 208.883 8.816C209.203 7.94133 209.715 7.23733 210.419 6.704C211.123 6.14933 212.093 5.872 213.331 5.872C214.483 5.872 215.496 6.18133 216.371 6.8C217.245 7.41867 217.917 8.336 218.387 9.552C218.877 10.768 219.123 12.2827 219.123 14.096C219.123 15.888 218.877 17.4027 218.387 18.64C217.896 19.856 217.192 20.7733 216.275 21.392C215.357 22.0107 214.269 22.32 213.011 22.32ZM208.339 27.952H202.579V6.192H208.339V27.952Z" fill="#D5D2C7"/>
</svg>
