<svg width="318" height="90" viewBox="0 0 318 90" fill="none" xmlns="http://www.w3.org/2000/svg">
<path d="M75.288 88H0.28V70.08L31.256 33.856L43.416 22.08L31.256 22.72H2.84V2.24H72.728V20.16L42.008 55.36L28.824 68.16L42.008 67.52H75.288V88ZM114.49 89.024C108.005 89.024 102.031 87.9147 96.57 85.696C91.194 83.392 86.5433 80.2347 82.618 76.224C78.6927 72.2133 75.6633 67.5627 73.53 62.272C71.3967 56.896 70.33 51.136 70.33 44.992C70.33 38.848 71.3967 33.1307 73.53 27.84C75.6633 22.464 78.6927 17.7707 82.618 13.76C86.5433 9.74933 91.194 6.63466 96.57 4.41599C102.031 2.112 108.005 0.959999 114.49 0.959999C121.061 0.959999 127.034 2.112 132.41 4.41599C137.786 6.63466 142.437 9.74933 146.362 13.76C150.287 17.7707 153.317 22.464 155.45 27.84C157.583 33.1307 158.65 38.848 158.65 44.992C158.65 51.136 157.583 56.896 155.45 62.272C153.317 67.5627 150.287 72.2133 146.362 76.224C142.437 80.2347 137.786 83.392 132.41 85.696C127.034 87.9147 121.061 89.024 114.49 89.024ZM114.49 66.624C118.927 66.624 122.597 65.6853 125.498 63.808C128.485 61.9307 130.703 59.3707 132.154 56.128C133.605 52.8 134.33 49.088 134.33 44.992C134.33 40.8107 133.605 37.0987 132.154 33.856C130.703 30.6133 128.485 28.0533 125.498 26.176C122.597 24.2987 118.927 23.36 114.49 23.36C110.053 23.36 106.341 24.2987 103.354 26.176C100.453 28.0533 98.2767 30.6133 96.826 33.856C95.3753 37.0987 94.65 40.8107 94.65 44.992C94.65 49.088 95.3753 52.8 96.826 56.128C98.2767 59.3707 100.453 61.9307 103.354 63.808C106.341 65.6853 110.053 66.624 114.49 66.624ZM197.854 66.112H170.974V45.632H198.11C201.097 45.632 203.571 45.2053 205.534 44.352C207.582 43.4133 209.075 42.0907 210.014 40.384C211.038 38.6773 211.55 36.5867 211.55 34.112C211.55 31.552 211.038 29.4613 210.014 27.84C209.075 26.1333 207.582 24.8533 205.534 24C203.571 23.1467 201.097 22.72 198.11 22.72H170.974V2.24H197.854C205.107 2.24 211.593 3.30666 217.31 5.43999C223.027 7.57333 227.55 10.9867 230.878 15.68C234.206 20.288 235.87 26.432 235.87 34.112C235.87 41.792 234.206 47.9787 230.878 52.672C227.635 57.3653 223.155 60.7787 217.438 62.912C211.721 65.0453 205.193 66.112 197.854 66.112ZM184.67 88H161.63V2.24H184.67V88ZM249.481 88H224.905L255.241 2.24H287.369L317.705 88H292.489L276.745 40.256L270.985 18.752L265.225 40.256L249.481 88ZM293.641 72H243.721V52.8H293.641V72Z" fill="#CAC3A7"/>
</svg>
