<svg width="204" height="97" viewBox="0 0 204 97" fill="none" xmlns="http://www.w3.org/2000/svg">
<g clip-path="url(#clip0_3058_341)">
<path d="M15.5898 46.7721V13.0303H18.8987V46.7721H15.5898Z" stroke="#A19357"/>
<path d="M0.533856 28.0362L34.0035 28.3305L33.9746 31.6731L0.504913 31.3788L0.533856 28.0362Z" stroke="#A19357"/>
<path d="M5.52671 17.7437L31.1694 39.4296L29.0395 41.9878L3.39686 20.3019L5.52671 17.7437Z" stroke="#A19357"/>
<path d="M31.0859 20.2499L5.63186 42.1605L3.47999 39.6212L28.934 17.7106L31.0859 20.2499Z" stroke="#A19357"/>
<path d="M53.722 45.1835C58.2805 45.1835 61.4073 41.6904 61.4073 37.6277C61.4073 33.9826 58.8456 31.5906 56.4722 30.3755L53.0816 28.6669C51.4616 27.8316 50.5198 26.8064 50.5198 25.2497C50.5198 23.5411 51.8007 22.2122 53.7597 22.2122C55.794 22.2122 57.753 23.8828 58.9209 25.8952L62.4999 23.0475C60.5032 19.8581 57.5647 17.8457 53.835 17.8457C49.0506 17.8457 45.9237 21.149 45.9237 25.4395C45.9237 29.1985 48.1841 31.4766 50.7458 32.7676L54.3625 34.5901C56.1708 35.5014 56.8112 36.6405 56.8112 37.9314C56.8112 39.4502 55.8317 40.8171 53.722 40.8171C51.8384 40.8171 49.8417 39.3363 48.5985 36.9442L45.0195 39.7919C47.0916 43.2091 49.8794 45.1835 53.722 45.1835ZM64.3741 44.8038H68.8572V18.2254H64.3741V44.8038ZM79.6223 45.1835C84.1807 45.1835 87.3076 41.6904 87.3076 37.6277C87.3076 33.9826 84.7458 31.5906 82.3724 30.3755L78.9818 28.6669C77.3619 27.8316 76.4201 26.8064 76.4201 25.2497C76.4201 23.5411 77.701 22.2122 79.66 22.2122C81.6943 22.2122 83.6533 23.8828 84.8212 25.8952L88.4001 23.0475C86.4035 19.8581 83.465 17.8457 79.7353 17.8457C74.9508 17.8457 71.824 21.149 71.824 25.4395C71.824 29.1985 74.0843 31.4766 76.6461 32.7676L80.2627 34.5901C82.071 35.5014 82.7115 36.6405 82.7115 37.9314C82.7115 39.4502 81.732 40.8171 79.6223 40.8171C77.7386 40.8171 75.742 39.3363 74.4988 36.9442L70.9198 39.7919C72.9918 43.2091 75.7796 45.1835 79.6223 45.1835ZM96.4993 44.8038H100.982V36.1469L109.384 18.2254H104.674L98.722 31.4766L92.5436 18.2254H87.8345L96.4993 36.1469V44.8038ZM111.061 44.8038H115.544V34.2104H120.818C126.356 34.2104 129.144 30.2237 129.144 26.1989C129.144 22.2122 126.356 18.2254 120.818 18.2254H111.061V44.8038ZM115.544 29.9199V22.5159H120.856C123.305 22.5159 124.51 24.3764 124.51 26.1989C124.51 28.0594 123.305 29.9199 120.856 29.9199H115.544ZM131.406 44.8038H135.889V33.451H148.057V44.8038H152.54V18.2254H148.057V29.1605H135.889V18.2254H131.406V44.8038ZM165.392 45.1835C170.553 45.1835 174.66 41.3866 174.66 36.0709V18.2254H170.176V35.5773C170.176 38.8806 168.142 40.7411 165.392 40.7411C162.604 40.7411 160.607 38.8806 160.607 35.5773V18.2254H156.124V36.0709C156.124 41.3866 160.193 45.1835 165.392 45.1835ZM185.247 45.1835C189.805 45.1835 192.932 41.6904 192.932 37.6277C192.932 33.9826 190.37 31.5906 187.997 30.3755L184.606 28.6669C182.986 27.8316 182.045 26.8064 182.045 25.2497C182.045 23.5411 183.325 22.2122 185.284 22.2122C187.319 22.2122 189.277 23.8828 190.445 25.8952L194.024 23.0475C192.028 19.8581 189.089 17.8457 185.36 17.8457C180.575 17.8457 177.448 21.149 177.448 25.4395C177.448 29.1985 179.709 31.4766 182.271 32.7676L185.887 34.5901C187.696 35.5014 188.336 36.6405 188.336 37.9314C188.336 39.4502 187.357 40.8171 185.247 40.8171C183.363 40.8171 181.366 39.3363 180.123 36.9442L176.544 39.7919C178.616 43.2091 181.404 45.1835 185.247 45.1835Z" fill="#A19357"/>
<mask id="path-6-outside-1_3058_341" maskUnits="userSpaceOnUse" x="0.130859" y="57.6387" width="122" height="31" fill="black">
<rect fill="white" x="0.130859" y="57.6387" width="122" height="31"/>
<path d="M17.9331 58.9045C9.64499 58.9045 8.43945 66.1186 7.3846 72.4595C6.51812 77.5853 5.76466 82.0277 1.69596 82.0277C1.3569 82.0277 1.13086 82.2555 1.13086 82.5972V86.0904C1.13086 86.4321 1.3569 86.6979 1.69596 86.6979C9.68266 86.6979 10.9635 79.5217 12.0937 73.1809C12.9979 67.9411 13.789 63.4228 17.9331 63.4228C18.2721 63.4228 18.5358 63.157 18.5358 62.8532V59.474C18.5358 59.1702 18.2721 58.9045 17.9331 58.9045ZM20.5325 58.9045C20.1935 58.9045 19.9674 59.1702 19.9674 59.474V62.8532C19.9674 63.157 20.1935 63.4228 20.5325 63.4228H25.6937L21.9641 85.9765C21.9264 86.1284 21.9641 86.3182 22.0771 86.4321C22.1901 86.584 22.3408 86.6599 22.5292 86.6599H26.3719C26.6356 86.6599 26.8993 86.4321 26.937 86.1663L30.7043 63.4228H36.0539C36.3552 63.4228 36.619 63.157 36.619 62.8532V59.474C36.619 59.1702 36.3552 58.9045 36.0539 58.9045H20.5325ZM49.8196 58.9045H45.9393C45.6379 58.9045 45.3742 59.1702 45.3742 59.474V82.3694H43.1138V59.474C43.1138 59.1702 42.8878 58.9045 42.5487 58.9045H38.6684C38.3293 58.9045 38.1033 59.1702 38.1033 59.474V82.0657C38.1033 82.9389 38.254 83.6983 38.6307 84.3438C39.0074 84.9513 39.4595 85.4829 40.0623 85.9005C40.665 86.2802 41.3055 86.584 42.059 86.7738C42.7747 86.9637 43.4905 87.0396 44.244 87.0396C44.9975 87.0396 45.7509 86.9637 46.429 86.7738C47.1825 86.584 47.8229 86.2802 48.4257 85.9005C49.0285 85.4829 49.5182 84.9513 49.8573 84.3438C50.234 83.6983 50.4224 82.9389 50.4224 82.0657V59.474C50.4224 59.1702 50.1587 58.9045 49.8196 58.9045ZM65.2954 72.7632C65.2954 69.7257 65.2954 66.6502 65.2954 63.6126C65.2954 62.7393 65.0693 62.0179 64.6549 61.3725C64.2405 60.8029 63.7131 60.3093 63.0727 59.9296C62.4699 59.5879 61.7918 59.3221 61.0383 59.1323C60.3225 58.9804 59.569 58.9045 58.8533 58.9045H53.2023C52.8632 58.9045 52.6372 59.1702 52.6372 59.474V86.0524C52.6372 86.3941 52.8632 86.6599 53.2023 86.6599H58.8533C59.569 86.6599 60.3225 86.584 61.0383 86.4321C61.8294 86.2423 62.5076 85.9765 63.1103 85.6348C63.7508 85.2551 64.2782 84.7615 64.6926 84.1919C65.107 83.5465 65.333 82.7871 65.333 81.9138C65.333 78.8762 65.333 75.8007 65.2954 72.7632ZM60.2848 81.9138H60.2472C60.2095 81.9518 60.1718 81.9897 60.1718 81.9897C60.0588 82.0277 59.9458 82.0657 59.7951 82.0657C59.7574 82.0657 59.7197 82.0657 59.6444 82.0657C59.4937 82.1036 59.343 82.1416 59.23 82.1416H57.6101V63.4228H58.8533C58.9286 63.4228 59.0416 63.4228 59.23 63.4228C59.4184 63.4608 59.569 63.4608 59.7197 63.5367C59.9081 63.5747 60.0588 63.6126 60.1718 63.6506C60.2095 63.6886 60.2472 63.7265 60.2848 63.7265C60.2848 63.7265 60.2848 63.7645 60.2848 63.8025V81.9138ZM74.4929 59.0943C74.3799 58.9804 74.1915 58.9045 74.0408 58.9045H70.1982C69.8968 58.9045 69.6707 59.1323 69.633 59.436L66.5439 86.0145C66.5062 86.1663 66.5439 86.3182 66.6569 86.4701C66.7699 86.584 66.9206 86.6599 67.109 86.6599H70.9516C71.253 86.6599 71.479 86.4321 71.5167 86.1284L74.6059 59.5499C74.6436 59.3981 74.5682 59.2462 74.4929 59.0943ZM89.7942 58.6387C81.9959 58.6387 75.7045 65.0175 75.7045 72.8771C75.7045 80.6988 81.9959 87.0776 89.7942 87.0776C97.5549 87.0776 103.884 80.6988 103.884 72.8771C103.884 65.0175 97.5549 58.6387 89.7942 58.6387ZM89.7942 82.4074C84.5576 82.4074 80.3382 78.1169 80.3382 72.8771C80.3382 67.5994 84.5576 63.3089 89.7942 63.3089C94.9931 63.3089 99.2502 67.5994 99.2502 72.8771C99.2502 78.1169 94.9931 82.4074 89.7942 82.4074ZM120.283 58.9045C111.995 58.9045 110.79 66.1186 109.735 72.4595C108.868 77.5853 108.115 82.0277 104.046 82.0277C103.707 82.0277 103.481 82.2555 103.481 82.5972V86.0904C103.481 86.4321 103.707 86.6979 104.046 86.6979C112.033 86.6979 113.314 79.5217 114.444 73.1809C115.348 67.9411 116.139 63.4228 120.283 63.4228C120.622 63.4228 120.886 63.157 120.886 62.8532V59.474C120.886 59.1702 120.622 58.9045 120.283 58.9045Z"/>
</mask>
<path d="M17.9331 58.9045C9.64499 58.9045 8.43945 66.1186 7.3846 72.4595C6.51812 77.5853 5.76466 82.0277 1.69596 82.0277C1.3569 82.0277 1.13086 82.2555 1.13086 82.5972V86.0904C1.13086 86.4321 1.3569 86.6979 1.69596 86.6979C9.68266 86.6979 10.9635 79.5217 12.0937 73.1809C12.9979 67.9411 13.789 63.4228 17.9331 63.4228C18.2721 63.4228 18.5358 63.157 18.5358 62.8532V59.474C18.5358 59.1702 18.2721 58.9045 17.9331 58.9045ZM20.5325 58.9045C20.1935 58.9045 19.9674 59.1702 19.9674 59.474V62.8532C19.9674 63.157 20.1935 63.4228 20.5325 63.4228H25.6937L21.9641 85.9765C21.9264 86.1284 21.9641 86.3182 22.0771 86.4321C22.1901 86.584 22.3408 86.6599 22.5292 86.6599H26.3719C26.6356 86.6599 26.8993 86.4321 26.937 86.1663L30.7043 63.4228H36.0539C36.3552 63.4228 36.619 63.157 36.619 62.8532V59.474C36.619 59.1702 36.3552 58.9045 36.0539 58.9045H20.5325ZM49.8196 58.9045H45.9393C45.6379 58.9045 45.3742 59.1702 45.3742 59.474V82.3694H43.1138V59.474C43.1138 59.1702 42.8878 58.9045 42.5487 58.9045H38.6684C38.3293 58.9045 38.1033 59.1702 38.1033 59.474V82.0657C38.1033 82.9389 38.254 83.6983 38.6307 84.3438C39.0074 84.9513 39.4595 85.4829 40.0623 85.9005C40.665 86.2802 41.3055 86.584 42.059 86.7738C42.7747 86.9637 43.4905 87.0396 44.244 87.0396C44.9975 87.0396 45.7509 86.9637 46.429 86.7738C47.1825 86.584 47.8229 86.2802 48.4257 85.9005C49.0285 85.4829 49.5182 84.9513 49.8573 84.3438C50.234 83.6983 50.4224 82.9389 50.4224 82.0657V59.474C50.4224 59.1702 50.1587 58.9045 49.8196 58.9045ZM65.2954 72.7632C65.2954 69.7257 65.2954 66.6502 65.2954 63.6126C65.2954 62.7393 65.0693 62.0179 64.6549 61.3725C64.2405 60.8029 63.7131 60.3093 63.0727 59.9296C62.4699 59.5879 61.7918 59.3221 61.0383 59.1323C60.3225 58.9804 59.569 58.9045 58.8533 58.9045H53.2023C52.8632 58.9045 52.6372 59.1702 52.6372 59.474V86.0524C52.6372 86.3941 52.8632 86.6599 53.2023 86.6599H58.8533C59.569 86.6599 60.3225 86.584 61.0383 86.4321C61.8294 86.2423 62.5076 85.9765 63.1103 85.6348C63.7508 85.2551 64.2782 84.7615 64.6926 84.1919C65.107 83.5465 65.333 82.7871 65.333 81.9138C65.333 78.8762 65.333 75.8007 65.2954 72.7632ZM60.2848 81.9138H60.2472C60.2095 81.9518 60.1718 81.9897 60.1718 81.9897C60.0588 82.0277 59.9458 82.0657 59.7951 82.0657C59.7574 82.0657 59.7197 82.0657 59.6444 82.0657C59.4937 82.1036 59.343 82.1416 59.23 82.1416H57.6101V63.4228H58.8533C58.9286 63.4228 59.0416 63.4228 59.23 63.4228C59.4184 63.4608 59.569 63.4608 59.7197 63.5367C59.9081 63.5747 60.0588 63.6126 60.1718 63.6506C60.2095 63.6886 60.2472 63.7265 60.2848 63.7265C60.2848 63.7265 60.2848 63.7645 60.2848 63.8025V81.9138ZM74.4929 59.0943C74.3799 58.9804 74.1915 58.9045 74.0408 58.9045H70.1982C69.8968 58.9045 69.6707 59.1323 69.633 59.436L66.5439 86.0145C66.5062 86.1663 66.5439 86.3182 66.6569 86.4701C66.7699 86.584 66.9206 86.6599 67.109 86.6599H70.9516C71.253 86.6599 71.479 86.4321 71.5167 86.1284L74.6059 59.5499C74.6436 59.3981 74.5682 59.2462 74.4929 59.0943ZM89.7942 58.6387C81.9959 58.6387 75.7045 65.0175 75.7045 72.8771C75.7045 80.6988 81.9959 87.0776 89.7942 87.0776C97.5549 87.0776 103.884 80.6988 103.884 72.8771C103.884 65.0175 97.5549 58.6387 89.7942 58.6387ZM89.7942 82.4074C84.5576 82.4074 80.3382 78.1169 80.3382 72.8771C80.3382 67.5994 84.5576 63.3089 89.7942 63.3089C94.9931 63.3089 99.2502 67.5994 99.2502 72.8771C99.2502 78.1169 94.9931 82.4074 89.7942 82.4074ZM120.283 58.9045C111.995 58.9045 110.79 66.1186 109.735 72.4595C108.868 77.5853 108.115 82.0277 104.046 82.0277C103.707 82.0277 103.481 82.2555 103.481 82.5972V86.0904C103.481 86.4321 103.707 86.6979 104.046 86.6979C112.033 86.6979 113.314 79.5217 114.444 73.1809C115.348 67.9411 116.139 63.4228 120.283 63.4228C120.622 63.4228 120.886 63.157 120.886 62.8532V59.474C120.886 59.1702 120.622 58.9045 120.283 58.9045Z" stroke="#A19357" stroke-width="2" mask="url(#path-6-outside-1_3058_341)"/>
<path d="M200.232 45.3731C202.313 45.3731 203.999 43.6732 203.999 41.5762C203.999 39.4792 202.313 37.7793 200.232 37.7793C198.152 37.7793 196.465 39.4792 196.465 41.5762C196.465 43.6732 198.152 45.3731 200.232 45.3731Z" fill="#A19357"/>
<mask id="mask0_3058_341" style="mask-type:luminance" maskUnits="userSpaceOnUse" x="126" y="46" width="57" height="56">
<path d="M182.338 46.1855H126.959V102H182.338V46.1855Z" fill="white"/>
</mask>
<g mask="url(#mask0_3058_341)">
<path d="M181.581 85.3092C181.7 86.5199 180.709 87.547 179.445 87.547H169.408C168.178 87.547 167.123 86.5137 166.814 85.1674C165.519 79.538 160.512 75.3376 154.525 75.3376C148.538 75.3376 143.53 79.538 142.236 85.1674C141.926 86.5137 140.871 87.547 139.642 87.547H129.604C128.34 87.547 127.35 86.5199 127.469 85.3092C128.832 71.455 140.428 60.6396 154.525 60.6396C168.621 60.6396 180.218 71.455 181.581 85.3092Z" stroke="#A19357"/>
</g>
</g>
<defs>
<clipPath id="clip0_3058_341">
<rect width="204" height="96.6316" fill="white"/>
</clipPath>
</defs>
</svg>
